<svg width="23" height="26" viewBox="0 0 23 26" fill="none" xmlns="http://www.w3.org/2000/svg">
<path d="M9.14307 0.679199C11.772 0.679199 14.0782 1.19303 16.0619 2.22069C18.0694 3.24835 19.6109 4.71815 20.6863 6.63008C21.7857 8.51811 22.3354 10.7168 22.3354 13.2262C22.3354 15.7356 21.7857 17.9344 20.6863 19.8224C19.6109 21.6865 18.0694 23.1324 16.0619 24.1601C14.0782 25.1877 11.772 25.7016 9.14307 25.7016H0.395996V0.679199H9.14307ZM8.96383 21.4356C11.5927 21.4356 13.6242 20.7186 15.0581 19.2847C16.492 17.8507 17.209 15.8312 17.209 13.2262C17.209 10.6212 16.492 8.58981 15.0581 7.13196C13.6242 5.65021 11.5927 4.90934 8.96383 4.90934H5.41481V21.4356H8.96383Z" fill="white"/>
</svg>
