<svg width="146" height="18" viewBox="0 0 146 18" fill="none" xmlns="http://www.w3.org/2000/svg">
<path d="M5.816 7.256C6.22133 7.32 6.58933 7.48533 6.92 7.752C7.26133 8.01867 7.528 8.34933 7.72 8.744C7.92267 9.13867 8.024 9.56 8.024 10.008C8.024 10.5733 7.88 11.0853 7.592 11.544C7.304 11.992 6.88267 12.3493 6.328 12.616C5.784 12.872 5.13867 13 4.392 13H0.232V1.848H4.232C4.98933 1.848 5.63467 1.976 6.168 2.232C6.70133 2.47733 7.10133 2.81333 7.368 3.24C7.63467 3.66667 7.768 4.14667 7.768 4.68C7.768 5.34133 7.58667 5.89067 7.224 6.328C6.872 6.75467 6.40267 7.064 5.816 7.256ZM1.688 6.664H4.136C4.81867 6.664 5.34667 6.504 5.72 6.184C6.09333 5.864 6.28 5.42133 6.28 4.856C6.28 4.29067 6.09333 3.848 5.72 3.528C5.34667 3.208 4.808 3.048 4.104 3.048H1.688V6.664ZM4.264 11.8C4.98933 11.8 5.55467 11.6293 5.96 11.288C6.36533 10.9467 6.568 10.472 6.568 9.864C6.568 9.24533 6.35467 8.76 5.928 8.408C5.50133 8.04533 4.93067 7.864 4.216 7.864H1.688V11.8H4.264ZM9.5005 8.584C9.5005 7.688 9.68183 6.904 10.0445 6.232C10.4072 5.54933 10.9032 5.02133 11.5325 4.648C12.1725 4.27467 12.8818 4.088 13.6605 4.088C14.4285 4.088 15.0952 4.25333 15.6605 4.584C16.2258 4.91467 16.6472 5.33067 16.9245 5.832V4.232H18.3965V13H16.9245V11.368C16.6365 11.88 16.2045 12.3067 15.6285 12.648C15.0632 12.9787 14.4018 13.144 13.6445 13.144C12.8658 13.144 12.1618 12.952 11.5325 12.568C10.9032 12.184 10.4072 11.6453 10.0445 10.952C9.68183 10.2587 9.5005 9.46933 9.5005 8.584ZM16.9245 8.6C16.9245 7.93867 16.7912 7.36267 16.5245 6.872C16.2578 6.38133 15.8952 6.008 15.4365 5.752C14.9885 5.48533 14.4925 5.352 13.9485 5.352C13.4045 5.352 12.9085 5.48 12.4605 5.736C12.0125 5.992 11.6552 6.36533 11.3885 6.856C11.1218 7.34667 10.9885 7.92267 10.9885 8.584C10.9885 9.256 11.1218 9.84267 11.3885 10.344C11.6552 10.8347 12.0125 11.2133 12.4605 11.48C12.9085 11.736 13.4045 11.864 13.9485 11.864C14.4925 11.864 14.9885 11.736 15.4365 11.48C15.8952 11.2133 16.2578 10.8347 16.5245 10.344C16.7912 9.84267 16.9245 9.26133 16.9245 8.6ZM25.129 4.072C26.1957 4.072 27.0597 4.39733 27.721 5.048C28.3823 5.688 28.713 6.616 28.713 7.832V13H27.273V8.04C27.273 7.16533 27.0543 6.49867 26.617 6.04C26.1797 5.57067 25.5823 5.336 24.825 5.336C24.057 5.336 23.4437 5.576 22.985 6.056C22.537 6.536 22.313 7.23467 22.313 8.152V13H20.857V4.232H22.313V5.48C22.601 5.032 22.9903 4.68533 23.481 4.44C23.9823 4.19467 24.5317 4.072 25.129 4.072ZM35.9874 13L32.5474 9.128V13H31.0914V1.16H32.5474V8.12L35.9234 4.232H37.9554L33.8274 8.6L37.9714 13H35.9874ZM40.0778 2.808C39.8004 2.808 39.5658 2.712 39.3738 2.52C39.1818 2.328 39.0858 2.09333 39.0858 1.816C39.0858 1.53867 39.1818 1.304 39.3738 1.112C39.5658 0.919999 39.8004 0.823999 40.0778 0.823999C40.3444 0.823999 40.5684 0.919999 40.7498 1.112C40.9418 1.304 41.0378 1.53867 41.0378 1.816C41.0378 2.09333 40.9418 2.328 40.7498 2.52C40.5684 2.712 40.3444 2.808 40.0778 2.808ZM40.7818 4.232V13H39.3258V4.232H40.7818ZM47.5353 4.072C48.6019 4.072 49.4659 4.39733 50.1273 5.048C50.7886 5.688 51.1193 6.616 51.1193 7.832V13H49.6793V8.04C49.6793 7.16533 49.4606 6.49867 49.0233 6.04C48.5859 5.57067 47.9886 5.336 47.2313 5.336C46.4633 5.336 45.8499 5.576 45.3913 6.056C44.9433 6.536 44.7193 7.23467 44.7193 8.152V13H43.2633V4.232H44.7193V5.48C45.0073 5.032 45.3966 4.68533 45.8873 4.44C46.3886 4.19467 46.9379 4.072 47.5353 4.072ZM57.1136 4.088C57.871 4.088 58.5323 4.25333 59.0976 4.584C59.6736 4.91467 60.1003 5.33067 60.3776 5.832V4.232H61.8496V13.192C61.8496 13.992 61.679 14.7013 61.3376 15.32C60.9963 15.9493 60.5056 16.44 59.8656 16.792C59.2363 17.144 58.5003 17.32 57.6576 17.32C56.5056 17.32 55.5456 17.048 54.7776 16.504C54.0096 15.96 53.5563 15.2187 53.4176 14.28H54.8576C55.0176 14.8133 55.3483 15.24 55.8496 15.56C56.351 15.8907 56.9536 16.056 57.6576 16.056C58.4576 16.056 59.1083 15.8053 59.6096 15.304C60.1216 14.8027 60.3776 14.0987 60.3776 13.192V11.352C60.0896 11.864 59.663 12.2907 59.0976 12.632C58.5323 12.9733 57.871 13.144 57.1136 13.144C56.335 13.144 55.6256 12.952 54.9856 12.568C54.3563 12.184 53.8603 11.6453 53.4976 10.952C53.135 10.2587 52.9536 9.46933 52.9536 8.584C52.9536 7.688 53.135 6.904 53.4976 6.232C53.8603 5.54933 54.3563 5.02133 54.9856 4.648C55.6256 4.27467 56.335 4.088 57.1136 4.088ZM60.3776 8.6C60.3776 7.93867 60.2443 7.36267 59.9776 6.872C59.711 6.38133 59.3483 6.008 58.8896 5.752C58.4416 5.48533 57.9456 5.352 57.4016 5.352C56.8576 5.352 56.3616 5.48 55.9136 5.736C55.4656 5.992 55.1083 6.36533 54.8416 6.856C54.575 7.34667 54.4416 7.92267 54.4416 8.584C54.4416 9.256 54.575 9.84267 54.8416 10.344C55.1083 10.8347 55.4656 11.2133 55.9136 11.48C56.3616 11.736 56.8576 11.864 57.4016 11.864C57.9456 11.864 58.4416 11.736 58.8896 11.48C59.3483 11.2133 59.711 10.8347 59.9776 10.344C60.2443 9.84267 60.3776 9.26133 60.3776 8.6ZM77.1358 13L75.6798 11.528C75.1358 12.0933 74.5544 12.5147 73.9358 12.792C73.3171 13.0587 72.6184 13.192 71.8398 13.192C71.0718 13.192 70.3891 13.0533 69.7918 12.776C69.2051 12.4987 68.7464 12.104 68.4158 11.592C68.0958 11.08 67.9358 10.4827 67.9358 9.8C67.9358 9.02133 68.1544 8.33867 68.5918 7.752C69.0398 7.15467 69.6958 6.68533 70.5598 6.344C70.2184 5.93867 69.9731 5.56533 69.8238 5.224C69.6744 4.88267 69.5998 4.50933 69.5998 4.104C69.5998 3.63467 69.7171 3.21333 69.9518 2.84C70.1971 2.456 70.5438 2.15733 70.9918 1.944C71.4398 1.73067 71.9571 1.624 72.5438 1.624C73.1198 1.624 73.6211 1.736 74.0478 1.96C74.4744 2.184 74.7944 2.49867 75.0078 2.904C75.2211 3.29867 75.3171 3.74133 75.2958 4.232H73.8398C73.8504 3.79467 73.7278 3.45333 73.4718 3.208C73.2158 2.952 72.8851 2.824 72.4798 2.824C72.0531 2.824 71.7064 2.94667 71.4398 3.192C71.1838 3.42667 71.0558 3.73067 71.0558 4.104C71.0558 4.424 71.1411 4.73333 71.3118 5.032C71.4931 5.33067 71.7918 5.69867 72.2078 6.136L75.5358 9.48L75.8238 9.032L76.9118 7.208H78.4798L77.1678 9.48C76.9864 9.8 76.7731 10.136 76.5278 10.488L79.0398 13H77.1358ZM71.8398 11.944C72.4158 11.944 72.9331 11.832 73.3918 11.608C73.8611 11.384 74.3038 11.0373 74.7198 10.568L71.4398 7.272C70.0744 7.79467 69.3918 8.62133 69.3918 9.752C69.3918 10.3813 69.6158 10.904 70.0638 11.32C70.5224 11.736 71.1144 11.944 71.8398 11.944ZM90.9735 1.848V3.032H86.1255V6.792H90.0615V7.976H86.1255V13H84.6695V1.848H90.9735ZM93.484 2.808C93.2067 2.808 92.972 2.712 92.78 2.52C92.588 2.328 92.492 2.09333 92.492 1.816C92.492 1.53867 92.588 1.304 92.78 1.112C92.972 0.919999 93.2067 0.823999 93.484 0.823999C93.7507 0.823999 93.9747 0.919999 94.156 1.112C94.348 1.304 94.444 1.53867 94.444 1.816C94.444 2.09333 94.348 2.328 94.156 2.52C93.9747 2.712 93.7507 2.808 93.484 2.808ZM94.188 4.232V13H92.732V4.232H94.188ZM100.942 4.072C102.008 4.072 102.872 4.39733 103.534 5.048C104.195 5.688 104.526 6.616 104.526 7.832V13H103.086V8.04C103.086 7.16533 102.867 6.49867 102.43 6.04C101.992 5.57067 101.395 5.336 100.638 5.336C99.8695 5.336 99.2562 5.576 98.7975 6.056C98.3495 6.536 98.1255 7.23467 98.1255 8.152V13H96.6695V4.232H98.1255V5.48C98.4135 5.032 98.8028 4.68533 99.2935 4.44C99.7948 4.19467 100.344 4.072 100.942 4.072ZM106.36 8.584C106.36 7.688 106.541 6.904 106.904 6.232C107.267 5.54933 107.763 5.02133 108.392 4.648C109.032 4.27467 109.741 4.088 110.52 4.088C111.288 4.088 111.955 4.25333 112.52 4.584C113.085 4.91467 113.507 5.33067 113.784 5.832V4.232H115.256V13H113.784V11.368C113.496 11.88 113.064 12.3067 112.488 12.648C111.923 12.9787 111.261 13.144 110.504 13.144C109.725 13.144 109.021 12.952 108.392 12.568C107.763 12.184 107.267 11.6453 106.904 10.952C106.541 10.2587 106.36 9.46933 106.36 8.584ZM113.784 8.6C113.784 7.93867 113.651 7.36267 113.384 6.872C113.117 6.38133 112.755 6.008 112.296 5.752C111.848 5.48533 111.352 5.352 110.808 5.352C110.264 5.352 109.768 5.48 109.32 5.736C108.872 5.992 108.515 6.36533 108.248 6.856C107.981 7.34667 107.848 7.92267 107.848 8.584C107.848 9.256 107.981 9.84267 108.248 10.344C108.515 10.8347 108.872 11.2133 109.32 11.48C109.768 11.736 110.264 11.864 110.808 11.864C111.352 11.864 111.848 11.736 112.296 11.48C112.755 11.2133 113.117 10.8347 113.384 10.344C113.651 9.84267 113.784 9.26133 113.784 8.6ZM121.988 4.072C123.055 4.072 123.919 4.39733 124.58 5.048C125.242 5.688 125.572 6.616 125.572 7.832V13H124.132V8.04C124.132 7.16533 123.914 6.49867 123.476 6.04C123.039 5.57067 122.442 5.336 121.684 5.336C120.916 5.336 120.303 5.576 119.844 6.056C119.396 6.536 119.172 7.23467 119.172 8.152V13H117.716V4.232H119.172V5.48C119.46 5.032 119.85 4.68533 120.34 4.44C120.842 4.19467 121.391 4.072 121.988 4.072ZM127.407 8.6C127.407 7.69333 127.588 6.904 127.951 6.232C128.313 5.54933 128.815 5.02133 129.455 4.648C130.105 4.27467 130.847 4.088 131.679 4.088C132.756 4.088 133.641 4.34933 134.335 4.872C135.039 5.39467 135.503 6.12 135.727 7.048H134.159C134.009 6.51467 133.716 6.09333 133.279 5.784C132.852 5.47467 132.319 5.32 131.679 5.32C130.847 5.32 130.175 5.608 129.663 6.184C129.151 6.74933 128.895 7.55467 128.895 8.6C128.895 9.656 129.151 10.472 129.663 11.048C130.175 11.624 130.847 11.912 131.679 11.912C132.319 11.912 132.852 11.7627 133.279 11.464C133.705 11.1653 133.999 10.7387 134.159 10.184H135.727C135.492 11.08 135.023 11.8 134.319 12.344C133.615 12.8773 132.735 13.144 131.679 13.144C130.847 13.144 130.105 12.9573 129.455 12.584C128.815 12.2107 128.313 11.6827 127.951 11C127.588 10.3173 127.407 9.51733 127.407 8.6ZM145.67 8.28C145.67 8.55733 145.654 8.85067 145.622 9.16H138.614C138.667 10.024 138.96 10.7013 139.494 11.192C140.038 11.672 140.694 11.912 141.462 11.912C142.091 11.912 142.614 11.768 143.03 11.48C143.456 11.1813 143.755 10.7867 143.926 10.296H145.494C145.259 11.1387 144.79 11.8267 144.086 12.36C143.382 12.8827 142.507 13.144 141.462 13.144C140.63 13.144 139.883 12.9573 139.222 12.584C138.571 12.2107 138.059 11.6827 137.686 11C137.312 10.3067 137.126 9.50667 137.126 8.6C137.126 7.69333 137.307 6.89867 137.67 6.216C138.032 5.53333 138.539 5.01067 139.19 4.648C139.851 4.27467 140.608 4.088 141.462 4.088C142.294 4.088 143.03 4.26933 143.67 4.632C144.31 4.99467 144.8 5.496 145.142 6.136C145.494 6.76533 145.67 7.48 145.67 8.28ZM144.166 7.976C144.166 7.42133 144.043 6.94667 143.798 6.552C143.552 6.14667 143.216 5.84267 142.79 5.64C142.374 5.42667 141.91 5.32 141.398 5.32C140.662 5.32 140.032 5.55467 139.51 6.024C138.998 6.49333 138.704 7.144 138.63 7.976H144.166Z" fill="black"/>
</svg>
