<svg width="32" height="32" viewBox="0 0 32 32" fill="none" xmlns="http://www.w3.org/2000/svg">
<path d="M26.6665 9.33325H5.33317C3.86041 9.33325 2.6665 10.5272 2.6665 11.9999V25.3333C2.6665 26.806 3.86041 27.9999 5.33317 27.9999H26.6665C28.1393 27.9999 29.3332 26.806 29.3332 25.3333V11.9999C29.3332 10.5272 28.1393 9.33325 26.6665 9.33325Z" stroke="black" stroke-width="2" stroke-linecap="round" stroke-linejoin="round"/>
<path d="M21.3332 28V6.66667C21.3332 5.95942 21.0522 5.28115 20.5521 4.78105C20.052 4.28095 19.3737 4 18.6665 4H13.3332C12.6259 4 11.9477 4.28095 11.4476 4.78105C10.9475 5.28115 10.6665 5.95942 10.6665 6.66667V28" stroke="black" stroke-width="2" stroke-linecap="round" stroke-linejoin="round"/>
</svg>
