<svg width="109" height="18" viewBox="0 0 109 18" fill="none" xmlns="http://www.w3.org/2000/svg">
<path d="M0.688 7.416C0.688 6.328 0.933333 5.352 1.424 4.488C1.91467 3.61333 2.58133 2.93067 3.424 2.44C4.27733 1.94933 5.22133 1.704 6.256 1.704C7.472 1.704 8.53333 1.99733 9.44 2.584C10.3467 3.17067 11.008 4.00267 11.424 5.08H9.68C9.37067 4.408 8.92267 3.89067 8.336 3.528C7.76 3.16533 7.06667 2.984 6.256 2.984C5.47733 2.984 4.77867 3.16533 4.16 3.528C3.54133 3.89067 3.056 4.408 2.704 5.08C2.352 5.74133 2.176 6.52 2.176 7.416C2.176 8.30133 2.352 9.08 2.704 9.752C3.056 10.4133 3.54133 10.9253 4.16 11.288C4.77867 11.6507 5.47733 11.832 6.256 11.832C7.06667 11.832 7.76 11.656 8.336 11.304C8.92267 10.9413 9.37067 10.424 9.68 9.752H11.424C11.008 10.8187 10.3467 11.6453 9.44 12.232C8.53333 12.808 7.472 13.096 6.256 13.096C5.22133 13.096 4.27733 12.856 3.424 12.376C2.58133 11.8853 1.91467 11.208 1.424 10.344C0.933333 9.48 0.688 8.504 0.688 7.416ZM17.9434 4.072C18.6047 4.072 19.202 4.216 19.7354 4.504C20.2687 4.78133 20.6847 5.20267 20.9834 5.768C21.2927 6.33333 21.4474 7.02133 21.4474 7.832V13H20.0074V8.04C20.0074 7.16533 19.7887 6.49867 19.3514 6.04C18.914 5.57067 18.3167 5.336 17.5594 5.336C16.7914 5.336 16.178 5.576 15.7194 6.056C15.2714 6.536 15.0474 7.23467 15.0474 8.152V13H13.5914V1.16H15.0474V5.48C15.3354 5.032 15.73 4.68533 16.2314 4.44C16.7434 4.19467 17.314 4.072 17.9434 4.072ZM31.8258 8.28C31.8258 8.55733 31.8098 8.85067 31.7778 9.16H24.7698C24.8231 10.024 25.1164 10.7013 25.6498 11.192C26.1938 11.672 26.8498 11.912 27.6178 11.912C28.2471 11.912 28.7698 11.768 29.1858 11.48C29.6124 11.1813 29.9111 10.7867 30.0818 10.296H31.6498C31.4151 11.1387 30.9458 11.8267 30.2418 12.36C29.5378 12.8827 28.6631 13.144 27.6178 13.144C26.7858 13.144 26.0391 12.9573 25.3778 12.584C24.7271 12.2107 24.2151 11.6827 23.8418 11C23.4684 10.3067 23.2818 9.50667 23.2818 8.6C23.2818 7.69333 23.4631 6.89867 23.8258 6.216C24.1884 5.53333 24.6951 5.01067 25.3458 4.648C26.0071 4.27467 26.7644 4.088 27.6178 4.088C28.4498 4.088 29.1858 4.26933 29.8258 4.632C30.4658 4.99467 30.9564 5.496 31.2978 6.136C31.6498 6.76533 31.8258 7.48 31.8258 8.28ZM30.3218 7.976C30.3218 7.42133 30.1991 6.94667 29.9538 6.552C29.7084 6.14667 29.3724 5.84267 28.9458 5.64C28.5298 5.42667 28.0658 5.32 27.5538 5.32C26.8178 5.32 26.1884 5.55467 25.6658 6.024C25.1538 6.49333 24.8604 7.144 24.7858 7.976H30.3218ZM37.0116 11.656L39.7316 4.232H41.2836L37.8436 13H36.1476L32.7076 4.232H34.2756L37.0116 11.656ZM44.1724 5.656C44.4284 5.15467 44.791 4.76533 45.2604 4.488C45.7404 4.21067 46.3217 4.072 47.0044 4.072V5.576H46.6204C44.9884 5.576 44.1724 6.46133 44.1724 8.232V13H42.7164V4.232H44.1724V5.656ZM52.5091 13.144C51.6878 13.144 50.9411 12.9573 50.2691 12.584C49.6078 12.2107 49.0851 11.6827 48.7011 11C48.3278 10.3067 48.1411 9.50667 48.1411 8.6C48.1411 7.704 48.3331 6.91467 48.7171 6.232C49.1118 5.53867 49.6451 5.01067 50.3171 4.648C50.9891 4.27467 51.7411 4.088 52.5731 4.088C53.4051 4.088 54.1571 4.27467 54.8291 4.648C55.5011 5.01067 56.0291 5.53333 56.4131 6.216C56.8078 6.89867 57.0051 7.69333 57.0051 8.6C57.0051 9.50667 56.8025 10.3067 56.3971 11C56.0025 11.6827 55.4638 12.2107 54.7811 12.584C54.0985 12.9573 53.3411 13.144 52.5091 13.144ZM52.5091 11.864C53.0318 11.864 53.5225 11.7413 53.9811 11.496C54.4398 11.2507 54.8078 10.8827 55.0851 10.392C55.3731 9.90133 55.5171 9.304 55.5171 8.6C55.5171 7.896 55.3785 7.29867 55.1011 6.808C54.8238 6.31733 54.4611 5.95467 54.0131 5.72C53.5651 5.47467 53.0798 5.352 52.5571 5.352C52.0238 5.352 51.5331 5.47467 51.0851 5.72C50.6478 5.95467 50.2958 6.31733 50.0291 6.808C49.7625 7.29867 49.6291 7.896 49.6291 8.6C49.6291 9.31467 49.7571 9.91733 50.0131 10.408C50.2798 10.8987 50.6318 11.2667 51.0691 11.512C51.5065 11.7467 51.9865 11.864 52.5091 11.864ZM63.1915 4.072C64.2582 4.072 65.1222 4.39733 65.7835 5.048C66.4448 5.688 66.7755 6.616 66.7755 7.832V13H65.3355V8.04C65.3355 7.16533 65.1168 6.49867 64.6795 6.04C64.2422 5.57067 63.6448 5.336 62.8875 5.336C62.1195 5.336 61.5062 5.576 61.0475 6.056C60.5995 6.536 60.3755 7.23467 60.3755 8.152V13H58.9195V4.232H60.3755V5.48C60.6635 5.032 61.0528 4.68533 61.5435 4.44C62.0448 4.19467 62.5942 4.072 63.1915 4.072ZM74.8755 5.656C75.1315 5.15467 75.4942 4.76533 75.9635 4.488C76.4435 4.21067 77.0248 4.072 77.7075 4.072V5.576H77.3235C75.6915 5.576 74.8755 6.46133 74.8755 8.232V13H73.4195V4.232H74.8755V5.656ZM80.1403 2.808C79.8629 2.808 79.6283 2.712 79.4363 2.52C79.2443 2.328 79.1483 2.09333 79.1483 1.816C79.1483 1.53867 79.2443 1.304 79.4363 1.112C79.6283 0.919999 79.8629 0.823999 80.1403 0.823999C80.4069 0.823999 80.6309 0.919999 80.8123 1.112C81.0043 1.304 81.1003 1.53867 81.1003 1.816C81.1003 2.09333 81.0043 2.328 80.8123 2.52C80.6309 2.712 80.4069 2.808 80.1403 2.808ZM80.8443 4.232V13H79.3883V4.232H80.8443ZM86.9418 4.088C87.6991 4.088 88.3604 4.25333 88.9258 4.584C89.5018 4.91467 89.9284 5.33067 90.2058 5.832V4.232H91.6778V13.192C91.6778 13.992 91.5071 14.7013 91.1658 15.32C90.8244 15.9493 90.3338 16.44 89.6938 16.792C89.0644 17.144 88.3284 17.32 87.4858 17.32C86.3338 17.32 85.3738 17.048 84.6058 16.504C83.8378 15.96 83.3844 15.2187 83.2458 14.28H84.6858C84.8458 14.8133 85.1764 15.24 85.6778 15.56C86.1791 15.8907 86.7818 16.056 87.4858 16.056C88.2858 16.056 88.9364 15.8053 89.4378 15.304C89.9498 14.8027 90.2058 14.0987 90.2058 13.192V11.352C89.9178 11.864 89.4911 12.2907 88.9258 12.632C88.3604 12.9733 87.6991 13.144 86.9418 13.144C86.1631 13.144 85.4538 12.952 84.8138 12.568C84.1844 12.184 83.6884 11.6453 83.3258 10.952C82.9631 10.2587 82.7818 9.46933 82.7818 8.584C82.7818 7.688 82.9631 6.904 83.3258 6.232C83.6884 5.54933 84.1844 5.02133 84.8138 4.648C85.4538 4.27467 86.1631 4.088 86.9418 4.088ZM90.2058 8.6C90.2058 7.93867 90.0724 7.36267 89.8058 6.872C89.5391 6.38133 89.1764 6.008 88.7178 5.752C88.2698 5.48533 87.7738 5.352 87.2298 5.352C86.6858 5.352 86.1898 5.48 85.7418 5.736C85.2938 5.992 84.9364 6.36533 84.6698 6.856C84.4031 7.34667 84.2698 7.92267 84.2698 8.584C84.2698 9.256 84.4031 9.84267 84.6698 10.344C84.9364 10.8347 85.2938 11.2133 85.7418 11.48C86.1898 11.736 86.6858 11.864 87.2298 11.864C87.7738 11.864 88.2698 11.736 88.7178 11.48C89.1764 11.2133 89.5391 10.8347 89.8058 10.344C90.0724 9.84267 90.2058 9.26133 90.2058 8.6ZM98.4903 4.072C99.1516 4.072 99.7489 4.216 100.282 4.504C100.816 4.78133 101.232 5.20267 101.53 5.768C101.84 6.33333 101.994 7.02133 101.994 7.832V13H100.554V8.04C100.554 7.16533 100.336 6.49867 99.8983 6.04C99.4609 5.57067 98.8636 5.336 98.1063 5.336C97.3383 5.336 96.7249 5.576 96.2663 6.056C95.8183 6.536 95.5943 7.23467 95.5943 8.152V13H94.1383V1.16H95.5943V5.48C95.8823 5.032 96.2769 4.68533 96.7783 4.44C97.2903 4.19467 97.8609 4.072 98.4903 4.072ZM106.149 5.432V10.6C106.149 11.0267 106.239 11.3307 106.421 11.512C106.602 11.6827 106.917 11.768 107.365 11.768H108.437V13H107.125C106.314 13 105.706 12.8133 105.301 12.44C104.895 12.0667 104.693 11.4533 104.693 10.6V5.432H103.557V4.232H104.693V2.024H106.149V4.232H108.437V5.432H106.149Z" fill="black"/>
</svg>
