<svg width="97" height="17" viewBox="0 0 97 17" fill="none" xmlns="http://www.w3.org/2000/svg">
<path d="M4.33222 0.72824C5.50555 0.72824 6.53489 0.957573 7.42022 1.41624C8.31622 1.87491 9.00422 2.53091 9.48422 3.38424C9.97489 4.22691 10.2202 5.20824 10.2202 6.32824C10.2202 7.44824 9.97489 8.42957 9.48422 9.27224C9.00422 10.1042 8.31622 10.7496 7.42022 11.2082C6.53489 11.6669 5.50555 11.8962 4.33222 11.8962H0.428219V0.72824H4.33222ZM4.25222 9.99224C5.42555 9.99224 6.33222 9.67224 6.97222 9.03224C7.61222 8.39224 7.93222 7.49091 7.93222 6.32824C7.93222 5.16557 7.61222 4.25891 6.97222 3.60824C6.33222 2.94691 5.42555 2.61624 4.25222 2.61624H2.66822V9.99224H4.25222ZM20.137 7.27224C20.137 7.59224 20.1156 7.88024 20.073 8.13624H13.593C13.6463 8.77624 13.8703 9.27757 14.265 9.64024C14.6596 10.0029 15.145 10.1842 15.721 10.1842C16.553 10.1842 17.145 9.82691 17.497 9.11224H19.913C19.657 9.96557 19.1663 10.6696 18.441 11.2242C17.7156 11.7682 16.825 12.0402 15.769 12.0402C14.9156 12.0402 14.1476 11.8536 13.465 11.4802C12.793 11.0962 12.265 10.5576 11.881 9.86424C11.5076 9.17091 11.321 8.37091 11.321 7.46424C11.321 6.54691 11.5076 5.74157 11.881 5.04824C12.2543 4.35491 12.777 3.82157 13.449 3.44824C14.121 3.07491 14.8943 2.88824 15.769 2.88824C16.6116 2.88824 17.3636 3.06957 18.025 3.43224C18.697 3.79491 19.2143 4.31224 19.577 4.98424C19.9503 5.64557 20.137 6.40824 20.137 7.27224ZM17.817 6.63224C17.8063 6.05624 17.5983 5.59757 17.193 5.25624C16.7876 4.90424 16.2916 4.72824 15.705 4.72824C15.1503 4.72824 14.681 4.89891 14.297 5.24024C13.9236 5.57091 13.6943 6.03491 13.609 6.63224H17.817ZM24.012 0.0562401V11.8962H21.772V0.0562401H24.012ZM28.8331 4.87224V9.16024C28.8331 9.45891 28.9024 9.67757 29.0411 9.81624C29.1904 9.94424 29.4358 10.0082 29.7771 10.0082H30.8171V11.8962H29.4091C27.5211 11.8962 26.5771 10.9789 26.5771 9.14424V4.87224H25.5211V3.03224H26.5771V0.84024H28.8331V3.03224H30.8171V4.87224H28.8331ZM31.8522 7.43224C31.8522 6.53624 32.0282 5.74157 32.3802 5.04824C32.7429 4.35491 33.2282 3.82157 33.8362 3.44824C34.4549 3.07491 35.1429 2.88824 35.9002 2.88824C36.5616 2.88824 37.1376 3.02157 37.6282 3.28824C38.1296 3.55491 38.5296 3.89091 38.8282 4.29624V3.03224H41.0842V11.8962H38.8282V10.6002C38.5402 11.0162 38.1402 11.3629 37.6282 11.6402C37.1269 11.9069 36.5456 12.0402 35.8842 12.0402C35.1376 12.0402 34.4549 11.8482 33.8362 11.4642C33.2282 11.0802 32.7429 10.5416 32.3802 9.84824C32.0282 9.14424 31.8522 8.33891 31.8522 7.43224ZM38.8282 7.46424C38.8282 6.92024 38.7216 6.45624 38.5082 6.07224C38.2949 5.67757 38.0069 5.37891 37.6442 5.17624C37.2816 4.96291 36.8922 4.85624 36.4762 4.85624C36.0602 4.85624 35.6762 4.95757 35.3242 5.16024C34.9722 5.36291 34.6842 5.66157 34.4602 6.05624C34.2469 6.44024 34.1402 6.89891 34.1402 7.43224C34.1402 7.96557 34.2469 8.43491 34.4602 8.84024C34.6842 9.23491 34.9722 9.53891 35.3242 9.75224C35.6869 9.96557 36.0709 10.0722 36.4762 10.0722C36.8922 10.0722 37.2816 9.97091 37.6442 9.76824C38.0069 9.55491 38.2949 9.25624 38.5082 8.87224C38.7216 8.47757 38.8282 8.00824 38.8282 7.46424ZM49.784 0.72824V8.56824C49.784 9.65624 49.4693 10.5042 48.84 11.1122C48.2106 11.7096 47.368 12.0082 46.312 12.0082C45.2453 12.0082 44.3813 11.6989 43.72 11.0802C43.0693 10.4616 42.744 9.59757 42.744 8.48824H44.984C44.9946 8.96824 45.1066 9.34157 45.32 9.60824C45.544 9.87491 45.864 10.0082 46.28 10.0082C46.6853 10.0082 46.9946 9.88024 47.208 9.62424C47.4213 9.36824 47.528 9.01624 47.528 8.56824V0.72824H49.784ZM56.333 12.0402C55.4796 12.0402 54.7116 11.8536 54.029 11.4802C53.3463 11.0962 52.8076 10.5576 52.413 9.86424C52.029 9.17091 51.837 8.37091 51.837 7.46424C51.837 6.55757 52.0343 5.75757 52.429 5.06424C52.8343 4.37091 53.3836 3.83757 54.077 3.46424C54.7703 3.08024 55.5436 2.88824 56.397 2.88824C57.2503 2.88824 58.0236 3.08024 58.717 3.46424C59.4103 3.83757 59.9543 4.37091 60.349 5.06424C60.7543 5.75757 60.957 6.55757 60.957 7.46424C60.957 8.37091 60.749 9.17091 60.333 9.86424C59.9276 10.5576 59.373 11.0962 58.669 11.4802C57.9756 11.8536 57.197 12.0402 56.333 12.0402ZM56.333 10.0882C56.7383 10.0882 57.117 9.99224 57.469 9.80024C57.8316 9.59757 58.1196 9.29891 58.333 8.90424C58.5463 8.50957 58.653 8.02957 58.653 7.46424C58.653 6.62157 58.429 5.97624 57.981 5.52824C57.5436 5.06957 57.005 4.84024 56.365 4.84024C55.725 4.84024 55.1863 5.06957 54.749 5.52824C54.3223 5.97624 54.109 6.62157 54.109 7.46424C54.109 8.30691 54.317 8.95757 54.733 9.41624C55.1596 9.86424 55.693 10.0882 56.333 10.0882ZM64.8401 4.32824C65.1281 3.90157 65.5228 3.55491 66.0241 3.28824C66.5361 3.02157 67.1174 2.88824 67.7681 2.88824C68.5254 2.88824 69.2081 3.07491 69.8161 3.44824C70.4348 3.82157 70.9201 4.35491 71.2721 5.04824C71.6348 5.73091 71.8161 6.52557 71.8161 7.43224C71.8161 8.33891 71.6348 9.14424 71.2721 9.84824C70.9201 10.5416 70.4348 11.0802 69.8161 11.4642C69.2081 11.8482 68.5254 12.0402 67.7681 12.0402C67.1068 12.0402 66.5254 11.9122 66.0241 11.6562C65.5334 11.3896 65.1388 11.0482 64.8401 10.6322V11.8962H62.6001V0.0562401H64.8401V4.32824ZM69.5281 7.43224C69.5281 6.89891 69.4161 6.44024 69.1921 6.05624C68.9788 5.66157 68.6908 5.36291 68.3281 5.16024C67.9761 4.95757 67.5921 4.85624 67.1761 4.85624C66.7708 4.85624 66.3868 4.96291 66.0241 5.17624C65.6721 5.37891 65.3841 5.67757 65.1601 6.07224C64.9468 6.46691 64.8401 6.93091 64.8401 7.46424C64.8401 7.99757 64.9468 8.46157 65.1601 8.85624C65.3841 9.25091 65.6721 9.55491 66.0241 9.76824C66.3868 9.97091 66.7708 10.0722 67.1761 10.0722C67.5921 10.0722 67.9761 9.96557 68.3281 9.75224C68.6908 9.53891 68.9788 9.23491 69.1921 8.84024C69.4161 8.44557 69.5281 7.97624 69.5281 7.43224ZM74.4358 12.0082C74.0305 12.0082 73.6945 11.8856 73.4278 11.6402C73.1718 11.3842 73.0438 11.0696 73.0438 10.6962C73.0438 10.3229 73.1718 10.0136 73.4278 9.76824C73.6945 9.51224 74.0305 9.38424 74.4358 9.38424C74.8305 9.38424 75.1558 9.51224 75.4118 9.76824C75.6678 10.0136 75.7958 10.3229 75.7958 10.6962C75.7958 11.0696 75.6678 11.3842 75.4118 11.6402C75.1558 11.8856 74.8305 12.0082 74.4358 12.0082ZM82.5121 2.90424C83.5681 2.90424 84.4214 3.24024 85.0721 3.91224C85.7228 4.57357 86.0481 5.50157 86.0481 6.69624V11.8962H83.8081V7.00024C83.8081 6.29624 83.6321 5.75757 83.2801 5.38424C82.9281 5.00024 82.4481 4.80824 81.8401 4.80824C81.2214 4.80824 80.7308 5.00024 80.3681 5.38424C80.0161 5.75757 79.8401 6.29624 79.8401 7.00024V11.8962H77.6001V3.03224H79.8401V4.13624C80.1388 3.75224 80.5174 3.45357 80.9761 3.24024C81.4454 3.01624 81.9574 2.90424 82.5121 2.90424ZM91.6502 2.88824C92.3116 2.88824 92.8929 3.02157 93.3942 3.28824C93.8956 3.54424 94.2902 3.88024 94.5782 4.29624V3.03224H96.8342V11.9602C96.8342 12.7816 96.6689 13.5122 96.3382 14.1522C96.0076 14.8029 95.5116 15.3149 94.8502 15.6882C94.1889 16.0722 93.3889 16.2642 92.4502 16.2642C91.1916 16.2642 90.1569 15.9709 89.3462 15.3842C88.5462 14.7976 88.0929 13.9976 87.9862 12.9842H90.2102C90.3276 13.3896 90.5782 13.7096 90.9622 13.9442C91.3569 14.1896 91.8316 14.3122 92.3862 14.3122C93.0369 14.3122 93.5649 14.1149 93.9702 13.7202C94.3756 13.3362 94.5782 12.7496 94.5782 11.9602V10.5842C94.2902 11.0002 93.8902 11.3469 93.3782 11.6242C92.8769 11.9016 92.3009 12.0402 91.6502 12.0402C90.9036 12.0402 90.2209 11.8482 89.6022 11.4642C88.9836 11.0802 88.4929 10.5416 88.1302 9.84824C87.7782 9.14424 87.6022 8.33891 87.6022 7.43224C87.6022 6.53624 87.7782 5.74157 88.1302 5.04824C88.4929 4.35491 88.9782 3.82157 89.5862 3.44824C90.2049 3.07491 90.8929 2.88824 91.6502 2.88824ZM94.5782 7.46424C94.5782 6.92024 94.4716 6.45624 94.2582 6.07224C94.0449 5.67757 93.7569 5.37891 93.3942 5.17624C93.0316 4.96291 92.6422 4.85624 92.2262 4.85624C91.8102 4.85624 91.4262 4.95757 91.0742 5.16024C90.7222 5.36291 90.4342 5.66157 90.2102 6.05624C89.9969 6.44024 89.8902 6.89891 89.8902 7.43224C89.8902 7.96557 89.9969 8.43491 90.2102 8.84024C90.4342 9.23491 90.7222 9.53891 91.0742 9.75224C91.4369 9.96557 91.8209 10.0722 92.2262 10.0722C92.6422 10.0722 93.0316 9.97091 93.3942 9.76824C93.7569 9.55491 94.0449 9.25624 94.2582 8.87224C94.4716 8.47757 94.5782 8.00824 94.5782 7.46424Z" fill="black"/>
</svg>
