<svg width="77" height="13" viewBox="0 0 77 13" fill="none" xmlns="http://www.w3.org/2000/svg">
<path d="M6.536 0.848V2.032H1.688V5.792H5.624V6.976H1.688V12H0.232V0.848H6.536ZM7.7505 7.584C7.7505 6.688 7.93183 5.904 8.2945 5.232C8.65717 4.54933 9.15317 4.02133 9.7825 3.648C10.4225 3.27467 11.1318 3.088 11.9105 3.088C12.6785 3.088 13.3452 3.25333 13.9105 3.584C14.4758 3.91467 14.8972 4.33067 15.1745 4.832V3.232H16.6465V12H15.1745V10.368C14.8865 10.88 14.4545 11.3067 13.8785 11.648C13.3132 11.9787 12.6518 12.144 11.8945 12.144C11.1158 12.144 10.4118 11.952 9.7825 11.568C9.15317 11.184 8.65717 10.6453 8.2945 9.952C7.93183 9.25867 7.7505 8.46933 7.7505 7.584ZM15.1745 7.6C15.1745 6.93867 15.0412 6.36267 14.7745 5.872C14.5078 5.38133 14.1452 5.008 13.6865 4.752C13.2385 4.48533 12.7425 4.352 12.1985 4.352C11.6545 4.352 11.1585 4.48 10.7105 4.736C10.2625 4.992 9.90517 5.36533 9.6385 5.856C9.37183 6.34667 9.2385 6.92267 9.2385 7.584C9.2385 8.256 9.37183 8.84267 9.6385 9.344C9.90517 9.83467 10.2625 10.2133 10.7105 10.48C11.1585 10.736 11.6545 10.864 12.1985 10.864C12.7425 10.864 13.2385 10.736 13.6865 10.48C14.1452 10.2133 14.5078 9.83467 14.7745 9.344C15.0412 8.84267 15.1745 8.26133 15.1745 7.6ZM18.563 7.6C18.563 6.69333 18.7443 5.904 19.107 5.232C19.4697 4.54933 19.971 4.02133 20.611 3.648C21.2617 3.27467 22.003 3.088 22.835 3.088C23.9123 3.088 24.7977 3.34933 25.491 3.872C26.195 4.39467 26.659 5.12 26.883 6.048H25.315C25.1657 5.51467 24.8723 5.09333 24.435 4.784C24.0083 4.47467 23.475 4.32 22.835 4.32C22.003 4.32 21.331 4.608 20.819 5.184C20.307 5.74933 20.051 6.55467 20.051 7.6C20.051 8.656 20.307 9.472 20.819 10.048C21.331 10.624 22.003 10.912 22.835 10.912C23.475 10.912 24.0083 10.7627 24.435 10.464C24.8617 10.1653 25.155 9.73867 25.315 9.184H26.883C26.6483 10.08 26.179 10.8 25.475 11.344C24.771 11.8773 23.891 12.144 22.835 12.144C22.003 12.144 21.2617 11.9573 20.611 11.584C19.971 11.2107 19.4697 10.6827 19.107 10C18.7443 9.31733 18.563 8.51733 18.563 7.6ZM36.8258 7.28C36.8258 7.55733 36.8098 7.85067 36.7778 8.16H29.7698C29.8231 9.024 30.1164 9.70133 30.6498 10.192C31.1938 10.672 31.8498 10.912 32.6178 10.912C33.2471 10.912 33.7698 10.768 34.1858 10.48C34.6124 10.1813 34.9111 9.78667 35.0818 9.296H36.6498C36.4151 10.1387 35.9458 10.8267 35.2418 11.36C34.5378 11.8827 33.6631 12.144 32.6178 12.144C31.7858 12.144 31.0391 11.9573 30.3778 11.584C29.7271 11.2107 29.2151 10.6827 28.8418 10C28.4684 9.30667 28.2818 8.50667 28.2818 7.6C28.2818 6.69333 28.4631 5.89867 28.8258 5.216C29.1884 4.53333 29.6951 4.01067 30.3458 3.648C31.0071 3.27467 31.7644 3.088 32.6178 3.088C33.4498 3.088 34.1858 3.26933 34.8258 3.632C35.4658 3.99467 35.9564 4.496 36.2978 5.136C36.6498 5.76533 36.8258 6.48 36.8258 7.28ZM35.3218 6.976C35.3218 6.42133 35.1991 5.94667 34.9538 5.552C34.7084 5.14667 34.3724 4.84267 33.9458 4.64C33.5298 4.42667 33.0658 4.32 32.5538 4.32C31.8178 4.32 31.1884 4.55467 30.6658 5.024C30.1538 5.49333 29.8604 6.144 29.7858 6.976H35.3218ZM40.2036 4.864C40.5023 4.34133 40.9396 3.91467 41.5156 3.584C42.0916 3.25333 42.7476 3.088 43.4836 3.088C44.273 3.088 44.9823 3.27467 45.6116 3.648C46.241 4.02133 46.737 4.54933 47.0996 5.232C47.4623 5.904 47.6436 6.688 47.6436 7.584C47.6436 8.46933 47.4623 9.25867 47.0996 9.952C46.737 10.6453 46.2356 11.184 45.5956 11.568C44.9663 11.952 44.2623 12.144 43.4836 12.144C42.7263 12.144 42.0596 11.9787 41.4836 11.648C40.9183 11.3173 40.4916 10.896 40.2036 10.384V12H38.7476V0.16H40.2036V4.864ZM46.1556 7.584C46.1556 6.92267 46.0223 6.34667 45.7556 5.856C45.489 5.36533 45.1263 4.992 44.6676 4.736C44.2196 4.48 43.7236 4.352 43.1796 4.352C42.6463 4.352 42.1503 4.48533 41.6916 4.752C41.2436 5.008 40.881 5.38667 40.6036 5.888C40.337 6.37867 40.2036 6.94933 40.2036 7.6C40.2036 8.26133 40.337 8.84267 40.6036 9.344C40.881 9.83467 41.2436 10.2133 41.6916 10.48C42.1503 10.736 42.6463 10.864 43.1796 10.864C43.7236 10.864 44.2196 10.736 44.6676 10.48C45.1263 10.2133 45.489 9.83467 45.7556 9.344C46.0223 8.84267 46.1556 8.256 46.1556 7.584ZM53.3841 12.144C52.5628 12.144 51.8161 11.9573 51.1441 11.584C50.4828 11.2107 49.9601 10.6827 49.5761 10C49.2028 9.30667 49.0161 8.50667 49.0161 7.6C49.0161 6.704 49.2081 5.91467 49.5921 5.232C49.9868 4.53867 50.5201 4.01067 51.1921 3.648C51.8641 3.27467 52.6161 3.088 53.4481 3.088C54.2801 3.088 55.0321 3.27467 55.7041 3.648C56.3761 4.01067 56.9041 4.53333 57.2881 5.216C57.6828 5.89867 57.8801 6.69333 57.8801 7.6C57.8801 8.50667 57.6775 9.30667 57.2721 10C56.8775 10.6827 56.3388 11.2107 55.6561 11.584C54.9735 11.9573 54.2161 12.144 53.3841 12.144ZM53.3841 10.864C53.9068 10.864 54.3975 10.7413 54.8561 10.496C55.3148 10.2507 55.6828 9.88267 55.9601 9.392C56.2481 8.90133 56.3921 8.304 56.3921 7.6C56.3921 6.896 56.2535 6.29867 55.9761 5.808C55.6988 5.31733 55.3361 4.95467 54.8881 4.72C54.4401 4.47467 53.9548 4.352 53.4321 4.352C52.8988 4.352 52.4081 4.47467 51.9601 4.72C51.5228 4.95467 51.1708 5.31733 50.9041 5.808C50.6375 6.29867 50.5041 6.896 50.5041 7.6C50.5041 8.31467 50.6321 8.91733 50.8881 9.408C51.1548 9.89867 51.5068 10.2667 51.9441 10.512C52.3815 10.7467 52.8615 10.864 53.3841 10.864ZM63.6185 12.144C62.7972 12.144 62.0505 11.9573 61.3785 11.584C60.7172 11.2107 60.1945 10.6827 59.8105 10C59.4372 9.30667 59.2505 8.50667 59.2505 7.6C59.2505 6.704 59.4425 5.91467 59.8265 5.232C60.2212 4.53867 60.7545 4.01067 61.4265 3.648C62.0985 3.27467 62.8505 3.088 63.6825 3.088C64.5145 3.088 65.2665 3.27467 65.9385 3.648C66.6105 4.01067 67.1385 4.53333 67.5225 5.216C67.9172 5.89867 68.1145 6.69333 68.1145 7.6C68.1145 8.50667 67.9118 9.30667 67.5065 10C67.1118 10.6827 66.5732 11.2107 65.8905 11.584C65.2078 11.9573 64.4505 12.144 63.6185 12.144ZM63.6185 10.864C64.1412 10.864 64.6318 10.7413 65.0905 10.496C65.5492 10.2507 65.9172 9.88267 66.1945 9.392C66.4825 8.90133 66.6265 8.304 66.6265 7.6C66.6265 6.896 66.4878 6.29867 66.2105 5.808C65.9332 5.31733 65.5705 4.95467 65.1225 4.72C64.6745 4.47467 64.1892 4.352 63.6665 4.352C63.1332 4.352 62.6425 4.47467 62.1945 4.72C61.7572 4.95467 61.4052 5.31733 61.1385 5.808C60.8718 6.29867 60.7385 6.896 60.7385 7.6C60.7385 8.31467 60.8665 8.91733 61.1225 9.408C61.3892 9.89867 61.7412 10.2667 62.1785 10.512C62.6158 10.7467 63.0958 10.864 63.6185 10.864ZM74.9249 12L71.4849 8.128V12H70.0289V0.16H71.4849V7.12L74.8609 3.232H76.8929L72.7649 7.6L76.9089 12H74.9249Z" fill="black"/>
</svg>
