<svg width="120" height="15" viewBox="0 0 120 15" fill="none" xmlns="http://www.w3.org/2000/svg">
<path d="M2.762 1.436V14H0.242V1.436H2.762ZM4.60377 9.014C4.60377 7.982 4.81377 7.082 5.23377 6.314C5.65377 5.534 6.23577 4.934 6.97977 4.514C7.72377 4.082 8.57577 3.866 9.53577 3.866C10.7718 3.866 11.7918 4.178 12.5958 4.802C13.4118 5.414 13.9578 6.278 14.2338 7.394H11.5158C11.3718 6.962 11.1258 6.626 10.7778 6.386C10.4418 6.134 10.0218 6.008 9.51777 6.008C8.79777 6.008 8.22777 6.272 7.80777 6.8C7.38777 7.316 7.17777 8.054 7.17777 9.014C7.17777 9.962 7.38777 10.7 7.80777 11.228C8.22777 11.744 8.79777 12.002 9.51777 12.002C10.5378 12.002 11.2038 11.546 11.5158 10.634H14.2338C13.9578 11.714 13.4118 12.572 12.5958 13.208C11.7798 13.844 10.7598 14.162 9.53577 14.162C8.57577 14.162 7.72377 13.952 6.97977 13.532C6.23577 13.1 5.65377 12.5 5.23377 11.732C4.81377 10.952 4.60377 10.046 4.60377 9.014ZM20.5079 14.162C19.5479 14.162 18.6839 13.952 17.9159 13.532C17.1479 13.1 16.5419 12.494 16.0979 11.714C15.6659 10.934 15.4499 10.034 15.4499 9.014C15.4499 7.994 15.6719 7.094 16.1159 6.314C16.5719 5.534 17.1899 4.934 17.9699 4.514C18.7499 4.082 19.6199 3.866 20.5799 3.866C21.5399 3.866 22.4099 4.082 23.1899 4.514C23.9699 4.934 24.5819 5.534 25.0259 6.314C25.4819 7.094 25.7099 7.994 25.7099 9.014C25.7099 10.034 25.4759 10.934 25.0079 11.714C24.5519 12.494 23.9279 13.1 23.1359 13.532C22.3559 13.952 21.4799 14.162 20.5079 14.162ZM20.5079 11.966C20.9639 11.966 21.3899 11.858 21.7859 11.642C22.1939 11.414 22.5179 11.078 22.7579 10.634C22.9979 10.19 23.1179 9.65 23.1179 9.014C23.1179 8.066 22.8659 7.34 22.3619 6.836C21.8699 6.32 21.2639 6.062 20.5439 6.062C19.8239 6.062 19.2179 6.32 18.7259 6.836C18.2459 7.34 18.0059 8.066 18.0059 9.014C18.0059 9.962 18.2399 10.694 18.7079 11.21C19.1879 11.714 19.7879 11.966 20.5079 11.966ZM33.0844 3.884C34.2724 3.884 35.2324 4.262 35.9644 5.018C36.6964 5.762 37.0624 6.806 37.0624 8.15V14H34.5424V8.492C34.5424 7.7 34.3444 7.094 33.9484 6.674C33.5524 6.242 33.0124 6.026 32.3284 6.026C31.6324 6.026 31.0804 6.242 30.6724 6.674C30.2764 7.094 30.0784 7.7 30.0784 8.492V14H27.5584V4.028H30.0784V5.27C30.4144 4.838 30.8404 4.502 31.3564 4.262C31.8844 4.01 32.4604 3.884 33.0844 3.884ZM43.2748 14.162C42.4588 14.162 41.7268 14.018 41.0788 13.73C40.4308 13.43 39.9148 13.028 39.5308 12.524C39.1588 12.02 38.9548 11.462 38.9188 10.85H41.4568C41.5048 11.234 41.6908 11.552 42.0148 11.804C42.3508 12.056 42.7648 12.182 43.2568 12.182C43.7368 12.182 44.1088 12.086 44.3728 11.894C44.6488 11.702 44.7868 11.456 44.7868 11.156C44.7868 10.832 44.6188 10.592 44.2828 10.436C43.9588 10.268 43.4368 10.088 42.7168 9.896C41.9728 9.716 41.3608 9.53 40.8808 9.338C40.4128 9.146 40.0048 8.852 39.6568 8.456C39.3208 8.06 39.1528 7.526 39.1528 6.854C39.1528 6.302 39.3088 5.798 39.6208 5.342C39.9448 4.886 40.4008 4.526 40.9888 4.262C41.5888 3.998 42.2908 3.866 43.0948 3.866C44.2828 3.866 45.2308 4.166 45.9388 4.766C46.6468 5.354 47.0368 6.152 47.1088 7.16H44.6968C44.6608 6.764 44.4928 6.452 44.1928 6.224C43.9048 5.984 43.5148 5.864 43.0228 5.864C42.5668 5.864 42.2128 5.948 41.9608 6.116C41.7208 6.284 41.6008 6.518 41.6008 6.818C41.6008 7.154 41.7688 7.412 42.1048 7.592C42.4408 7.76 42.9628 7.934 43.6708 8.114C44.3908 8.294 44.9848 8.48 45.4528 8.672C45.9208 8.864 46.3228 9.164 46.6588 9.572C47.0068 9.968 47.1868 10.496 47.1988 11.156C47.1988 11.732 47.0368 12.248 46.7128 12.704C46.4008 13.16 45.9448 13.52 45.3448 13.784C44.7568 14.036 44.0668 14.162 43.2748 14.162ZM58.1285 6.098H56.3825V14H53.8265V6.098H52.6925V4.028H53.8265V3.524C53.8265 2.3 54.1745 1.4 54.8705 0.823999C55.5665 0.247999 56.6165 -0.0220004 58.0205 0.0139998V2.138C57.4085 2.126 56.9825 2.228 56.7425 2.444C56.5025 2.66 56.3825 3.05 56.3825 3.614V4.028H58.1285V6.098ZM64.1895 14.162C63.2295 14.162 62.3655 13.952 61.5975 13.532C60.8295 13.1 60.2235 12.494 59.7795 11.714C59.3475 10.934 59.1315 10.034 59.1315 9.014C59.1315 7.994 59.3535 7.094 59.7975 6.314C60.2535 5.534 60.8715 4.934 61.6515 4.514C62.4315 4.082 63.3015 3.866 64.2615 3.866C65.2215 3.866 66.0915 4.082 66.8715 4.514C67.6515 4.934 68.2635 5.534 68.7075 6.314C69.1635 7.094 69.3915 7.994 69.3915 9.014C69.3915 10.034 69.1575 10.934 68.6895 11.714C68.2335 12.494 67.6095 13.1 66.8175 13.532C66.0375 13.952 65.1615 14.162 64.1895 14.162ZM64.1895 11.966C64.6455 11.966 65.0715 11.858 65.4675 11.642C65.8755 11.414 66.1995 11.078 66.4395 10.634C66.6795 10.19 66.7995 9.65 66.7995 9.014C66.7995 8.066 66.5475 7.34 66.0435 6.836C65.5515 6.32 64.9455 6.062 64.2255 6.062C63.5055 6.062 62.8995 6.32 62.4075 6.836C61.9275 7.34 61.6875 8.066 61.6875 9.014C61.6875 9.962 61.9215 10.694 62.3895 11.21C62.8695 11.714 63.4695 11.966 64.1895 11.966ZM73.76 5.576C74.084 5.048 74.504 4.634 75.02 4.334C75.548 4.034 76.148 3.884 76.82 3.884V6.53H76.154C75.362 6.53 74.762 6.716 74.354 7.088C73.958 7.46 73.76 8.108 73.76 9.032V14H71.24V4.028H73.76V5.576ZM96.6305 4.028L93.7145 14H90.9965L89.1785 7.034L87.3605 14H84.6245L81.6905 4.028H84.2465L86.0105 11.624L87.9185 4.028H90.5825L92.4545 11.606L94.2185 4.028H96.6305ZM107.264 8.798C107.264 9.158 107.24 9.482 107.192 9.77H99.902C99.962 10.49 100.214 11.054 100.658 11.462C101.102 11.87 101.648 12.074 102.296 12.074C103.232 12.074 103.898 11.672 104.294 10.868H107.012C106.724 11.828 106.172 12.62 105.356 13.244C104.54 13.856 103.538 14.162 102.35 14.162C101.39 14.162 100.526 13.952 99.758 13.532C99.002 13.1 98.408 12.494 97.976 11.714C97.556 10.934 97.346 10.034 97.346 9.014C97.346 7.982 97.556 7.076 97.976 6.296C98.396 5.516 98.984 4.916 99.74 4.496C100.496 4.076 101.366 3.866 102.35 3.866C103.298 3.866 104.144 4.07 104.888 4.478C105.644 4.886 106.226 5.468 106.634 6.224C107.054 6.968 107.264 7.826 107.264 8.798ZM104.654 8.078C104.642 7.43 104.408 6.914 103.952 6.53C103.496 6.134 102.938 5.936 102.278 5.936C101.654 5.936 101.126 6.128 100.694 6.512C100.274 6.884 100.016 7.406 99.92 8.078H104.654ZM111.623 5.486C111.947 5.006 112.391 4.616 112.955 4.316C113.531 4.016 114.185 3.866 114.917 3.866C115.769 3.866 116.537 4.076 117.221 4.496C117.917 4.916 118.463 5.516 118.859 6.296C119.267 7.064 119.471 7.958 119.471 8.978C119.471 9.998 119.267 10.904 118.859 11.696C118.463 12.476 117.917 13.082 117.221 13.514C116.537 13.946 115.769 14.162 114.917 14.162C114.173 14.162 113.519 14.018 112.955 13.73C112.403 13.43 111.959 13.046 111.623 12.578V14H109.103V0.68H111.623V5.486ZM116.897 8.978C116.897 8.378 116.771 7.862 116.519 7.43C116.279 6.986 115.955 6.65 115.547 6.422C115.151 6.194 114.719 6.08 114.251 6.08C113.795 6.08 113.363 6.2 112.955 6.44C112.559 6.668 112.235 7.004 111.983 7.448C111.743 7.892 111.623 8.414 111.623 9.014C111.623 9.614 111.743 10.136 111.983 10.58C112.235 11.024 112.559 11.366 112.955 11.606C113.363 11.834 113.795 11.948 114.251 11.948C114.719 11.948 115.151 11.828 115.547 11.588C115.955 11.348 116.279 11.006 116.519 10.562C116.771 10.118 116.897 9.59 116.897 8.978Z" fill="black"/>
</svg>
