<svg width="82" height="17" viewBox="0 0 82 17" fill="none" xmlns="http://www.w3.org/2000/svg">
<path d="M1.688 0.848V12H0.232V0.848H1.688ZM8.4415 3.072C9.50817 3.072 10.3722 3.39733 11.0335 4.048C11.6948 4.688 12.0255 5.616 12.0255 6.832V12H10.5855V7.04C10.5855 6.16533 10.3668 5.49867 9.9295 5.04C9.49217 4.57067 8.89483 4.336 8.1375 4.336C7.3695 4.336 6.75617 4.576 6.2975 5.056C5.8495 5.536 5.6255 6.23467 5.6255 7.152V12H4.1695V3.232H5.6255V4.48C5.9135 4.032 6.30283 3.68533 6.7935 3.44C7.29483 3.19467 7.84417 3.072 8.4415 3.072ZM17.5079 12.144C16.8359 12.144 16.2332 12.032 15.6999 11.808C15.1665 11.5733 14.7452 11.2533 14.4359 10.848C14.1265 10.432 13.9559 9.95733 13.9239 9.424H15.4279C15.4705 9.86133 15.6732 10.2187 16.0359 10.496C16.4092 10.7733 16.8945 10.912 17.4919 10.912C18.0465 10.912 18.4839 10.7893 18.8039 10.544C19.1239 10.2987 19.2839 9.98933 19.2839 9.616C19.2839 9.232 19.1132 8.94933 18.7719 8.768C18.4305 8.576 17.9025 8.38933 17.1879 8.208C16.5372 8.03733 16.0039 7.86667 15.5879 7.696C15.1825 7.51467 14.8305 7.25333 14.5319 6.912C14.2439 6.56 14.0999 6.10133 14.0999 5.536C14.0999 5.088 14.2332 4.67733 14.4999 4.304C14.7665 3.93067 15.1452 3.63733 15.6359 3.424C16.1265 3.2 16.6865 3.088 17.3159 3.088C18.2865 3.088 19.0705 3.33333 19.6679 3.824C20.2652 4.31467 20.5852 4.98667 20.6279 5.84H19.1719C19.1399 5.38133 18.9532 5.01333 18.6119 4.736C18.2812 4.45867 17.8332 4.32 17.2679 4.32C16.7452 4.32 16.3292 4.432 16.0199 4.656C15.7105 4.88 15.5559 5.17333 15.5559 5.536C15.5559 5.824 15.6465 6.064 15.8279 6.256C16.0199 6.43733 16.2545 6.58667 16.5319 6.704C16.8199 6.81067 17.2145 6.93333 17.7159 7.072C18.3452 7.24267 18.8572 7.41333 19.2519 7.584C19.6465 7.744 19.9825 7.98933 20.2599 8.32C20.5479 8.65067 20.6972 9.08267 20.7079 9.616C20.7079 10.096 20.5745 10.528 20.3079 10.912C20.0412 11.296 19.6625 11.6 19.1719 11.824C18.6919 12.0373 18.1372 12.144 17.5079 12.144ZM24.5393 4.432V9.6C24.5393 10.0267 24.6299 10.3307 24.8113 10.512C24.9926 10.6827 25.3073 10.768 25.7552 10.768H26.8273V12H25.5153C24.7046 12 24.0966 11.8133 23.6913 11.44C23.2859 11.0667 23.0833 10.4533 23.0833 9.6V4.432H21.9473V3.232H23.0833V1.024H24.5393V3.232H26.8273V4.432H24.5393ZM28.0474 7.584C28.0474 6.688 28.2287 5.904 28.5914 5.232C28.954 4.54933 29.45 4.02133 30.0794 3.648C30.7194 3.27467 31.4287 3.088 32.2074 3.088C32.9754 3.088 33.642 3.25333 34.2074 3.584C34.7727 3.91467 35.194 4.33067 35.4714 4.832V3.232H36.9434V12H35.4714V10.368C35.1834 10.88 34.7514 11.3067 34.1754 11.648C33.61 11.9787 32.9487 12.144 32.1914 12.144C31.4127 12.144 30.7087 11.952 30.0794 11.568C29.45 11.184 28.954 10.6453 28.5914 9.952C28.2287 9.25867 28.0474 8.46933 28.0474 7.584ZM35.4714 7.6C35.4714 6.93867 35.338 6.36267 35.0714 5.872C34.8047 5.38133 34.442 5.008 33.9834 4.752C33.5354 4.48533 33.0394 4.352 32.4954 4.352C31.9514 4.352 31.4554 4.48 31.0074 4.736C30.5594 4.992 30.202 5.36533 29.9354 5.856C29.6687 6.34667 29.5354 6.92267 29.5354 7.584C29.5354 8.256 29.6687 8.84267 29.9354 9.344C30.202 9.83467 30.5594 10.2133 31.0074 10.48C31.4554 10.736 31.9514 10.864 32.4954 10.864C33.0394 10.864 33.5354 10.736 33.9834 10.48C34.442 10.2133 34.8047 9.83467 35.0714 9.344C35.338 8.84267 35.4714 8.26133 35.4714 7.6ZM43.0199 3.088C43.7772 3.088 44.4385 3.25333 45.0039 3.584C45.5799 3.91467 46.0065 4.33067 46.2839 4.832V3.232H47.7559V12.192C47.7559 12.992 47.5852 13.7013 47.2439 14.32C46.9025 14.9493 46.4119 15.44 45.7719 15.792C45.1425 16.144 44.4065 16.32 43.5639 16.32C42.4119 16.32 41.4519 16.048 40.6839 15.504C39.9159 14.96 39.4625 14.2187 39.3239 13.28H40.7639C40.9239 13.8133 41.2545 14.24 41.7559 14.56C42.2572 14.8907 42.8599 15.056 43.5639 15.056C44.3639 15.056 45.0145 14.8053 45.5159 14.304C46.0279 13.8027 46.2839 13.0987 46.2839 12.192V10.352C45.9959 10.864 45.5692 11.2907 45.0039 11.632C44.4385 11.9733 43.7772 12.144 43.0199 12.144C42.2412 12.144 41.5319 11.952 40.8919 11.568C40.2625 11.184 39.7665 10.6453 39.4039 9.952C39.0412 9.25867 38.8599 8.46933 38.8599 7.584C38.8599 6.688 39.0412 5.904 39.4039 5.232C39.7665 4.54933 40.2625 4.02133 40.8919 3.648C41.5319 3.27467 42.2412 3.088 43.0199 3.088ZM46.2839 7.6C46.2839 6.93867 46.1505 6.36267 45.8839 5.872C45.6172 5.38133 45.2545 5.008 44.7959 4.752C44.3479 4.48533 43.8519 4.352 43.3079 4.352C42.7639 4.352 42.2679 4.48 41.8199 4.736C41.3719 4.992 41.0145 5.36533 40.7479 5.856C40.4812 6.34667 40.3479 6.92267 40.3479 7.584C40.3479 8.256 40.4812 8.84267 40.7479 9.344C41.0145 9.83467 41.3719 10.2133 41.8199 10.48C42.2679 10.736 42.7639 10.864 43.3079 10.864C43.8519 10.864 44.3479 10.736 44.7959 10.48C45.2545 10.2133 45.6172 9.83467 45.8839 9.344C46.1505 8.84267 46.2839 8.26133 46.2839 7.6ZM51.6724 4.656C51.9284 4.15467 52.291 3.76533 52.7604 3.488C53.2404 3.21067 53.8217 3.072 54.5044 3.072V4.576H54.1204C52.4884 4.576 51.6724 5.46133 51.6724 7.232V12H50.2164V3.232H51.6724V4.656ZM55.6411 7.584C55.6411 6.688 55.8225 5.904 56.1851 5.232C56.5478 4.54933 57.0438 4.02133 57.6731 3.648C58.3131 3.27467 59.0225 3.088 59.8011 3.088C60.5691 3.088 61.2358 3.25333 61.8011 3.584C62.3665 3.91467 62.7878 4.33067 63.0651 4.832V3.232H64.5371V12H63.0651V10.368C62.7771 10.88 62.3451 11.3067 61.7691 11.648C61.2038 11.9787 60.5425 12.144 59.7851 12.144C59.0065 12.144 58.3025 11.952 57.6731 11.568C57.0438 11.184 56.5478 10.6453 56.1851 9.952C55.8225 9.25867 55.6411 8.46933 55.6411 7.584ZM63.0651 7.6C63.0651 6.93867 62.9318 6.36267 62.6651 5.872C62.3985 5.38133 62.0358 5.008 61.5771 4.752C61.1291 4.48533 60.6331 4.352 60.0891 4.352C59.5451 4.352 59.0491 4.48 58.6011 4.736C58.1531 4.992 57.7958 5.36533 57.5291 5.856C57.2625 6.34667 57.1291 6.92267 57.1291 7.584C57.1291 8.256 57.2625 8.84267 57.5291 9.344C57.7958 9.83467 58.1531 10.2133 58.6011 10.48C59.0491 10.736 59.5451 10.864 60.0891 10.864C60.6331 10.864 61.1291 10.736 61.5771 10.48C62.0358 10.2133 62.3985 9.83467 62.6651 9.344C62.9318 8.84267 63.0651 8.26133 63.0651 7.6ZM77.5416 3.072C78.2243 3.072 78.8323 3.216 79.3656 3.504C79.899 3.78133 80.3203 4.20267 80.6296 4.768C80.939 5.33333 81.0936 6.02133 81.0936 6.832V12H79.6536V7.04C79.6536 6.16533 79.435 5.49867 78.9976 5.04C78.571 4.57067 77.9896 4.336 77.2536 4.336C76.4963 4.336 75.8936 4.58133 75.4456 5.072C74.9976 5.552 74.7736 6.25067 74.7736 7.168V12H73.3336V7.04C73.3336 6.16533 73.115 5.49867 72.6776 5.04C72.251 4.57067 71.6696 4.336 70.9336 4.336C70.1763 4.336 69.5736 4.58133 69.1256 5.072C68.6776 5.552 68.4536 6.25067 68.4536 7.168V12H66.9976V3.232H68.4536V4.496C68.7416 4.03733 69.1256 3.68533 69.6056 3.44C70.0963 3.19467 70.635 3.072 71.2216 3.072C71.9576 3.072 72.6083 3.23733 73.1736 3.568C73.739 3.89867 74.1603 4.384 74.4376 5.024C74.683 4.40533 75.0883 3.92533 75.6536 3.584C76.219 3.24267 76.8483 3.072 77.5416 3.072Z" fill="black"/>
</svg>
