<svg width="63" height="14" viewBox="0 0 63 14" fill="none" xmlns="http://www.w3.org/2000/svg">
<path d="M1.688 11.816H5.592V13H0.232V1.848H1.688V11.816ZM7.89025 2.808C7.61292 2.808 7.37825 2.712 7.18625 2.52C6.99425 2.328 6.89825 2.09333 6.89825 1.816C6.89825 1.53867 6.99425 1.304 7.18625 1.112C7.37825 0.919999 7.61292 0.823999 7.89025 0.823999C8.15692 0.823999 8.38092 0.919999 8.56225 1.112C8.75425 1.304 8.85025 1.53867 8.85025 1.816C8.85025 2.09333 8.75425 2.328 8.56225 2.52C8.38092 2.712 8.15692 2.808 7.89025 2.808ZM8.59425 4.232V13H7.13825V4.232H8.59425ZM15.3478 4.072C16.4144 4.072 17.2784 4.39733 17.9398 5.048C18.6011 5.688 18.9318 6.616 18.9318 7.832V13H17.4918V8.04C17.4918 7.16533 17.2731 6.49867 16.8358 6.04C16.3984 5.57067 15.8011 5.336 15.0438 5.336C14.2758 5.336 13.6624 5.576 13.2038 6.056C12.7558 6.536 12.5318 7.23467 12.5318 8.152V13H11.0758V4.232H12.5318V5.48C12.8198 5.032 13.2091 4.68533 13.6998 4.44C14.2011 4.19467 14.7504 4.072 15.3478 4.072ZM26.2061 13L22.7661 9.128V13H21.3101V1.16H22.7661V8.12L26.1421 4.232H28.1741L24.0461 8.6L28.1901 13H26.2061ZM37.5445 8.28C37.5445 8.55733 37.5285 8.85067 37.4965 9.16H30.4885C30.5418 10.024 30.8352 10.7013 31.3685 11.192C31.9125 11.672 32.5685 11.912 33.3365 11.912C33.9658 11.912 34.4885 11.768 34.9045 11.48C35.3312 11.1813 35.6298 10.7867 35.8005 10.296H37.3685C37.1338 11.1387 36.6645 11.8267 35.9605 12.36C35.2565 12.8827 34.3818 13.144 33.3365 13.144C32.5045 13.144 31.7578 12.9573 31.0965 12.584C30.4458 12.2107 29.9338 11.6827 29.5605 11C29.1872 10.3067 29.0005 9.50667 29.0005 8.6C29.0005 7.69333 29.1818 6.89867 29.5445 6.216C29.9072 5.53333 30.4138 5.01067 31.0645 4.648C31.7258 4.27467 32.4832 4.088 33.3365 4.088C34.1685 4.088 34.9045 4.26933 35.5445 4.632C36.1845 4.99467 36.6752 5.496 37.0165 6.136C37.3685 6.76533 37.5445 7.48 37.5445 8.28ZM36.0405 7.976C36.0405 7.42133 35.9178 6.94667 35.6725 6.552C35.4272 6.14667 35.0912 5.84267 34.6645 5.64C34.2485 5.42667 33.7845 5.32 33.2725 5.32C32.5365 5.32 31.9072 5.55467 31.3845 6.024C30.8725 6.49333 30.5792 7.144 30.5045 7.976H36.0405ZM38.9224 8.584C38.9224 7.688 39.1037 6.904 39.4664 6.232C39.829 5.54933 40.325 5.02133 40.9544 4.648C41.5944 4.27467 42.309 4.088 43.0984 4.088C43.781 4.088 44.4157 4.248 45.0024 4.568C45.589 4.87733 46.037 5.288 46.3464 5.8V1.16H47.8184V13H46.3464V11.352C46.0584 11.8747 45.6317 12.3067 45.0664 12.648C44.501 12.9787 43.8397 13.144 43.0824 13.144C42.3037 13.144 41.5944 12.952 40.9544 12.568C40.325 12.184 39.829 11.6453 39.4664 10.952C39.1037 10.2587 38.9224 9.46933 38.9224 8.584ZM46.3464 8.6C46.3464 7.93867 46.213 7.36267 45.9464 6.872C45.6797 6.38133 45.317 6.008 44.8584 5.752C44.4104 5.48533 43.9144 5.352 43.3704 5.352C42.8264 5.352 42.3304 5.48 41.8824 5.736C41.4344 5.992 41.077 6.36533 40.8104 6.856C40.5437 7.34667 40.4104 7.92267 40.4104 8.584C40.4104 9.256 40.5437 9.84267 40.8104 10.344C41.077 10.8347 41.4344 11.2133 41.8824 11.48C42.3304 11.736 42.8264 11.864 43.3704 11.864C43.9144 11.864 44.4104 11.736 44.8584 11.48C45.317 11.2133 45.6797 10.8347 45.9464 10.344C46.213 9.84267 46.3464 9.26133 46.3464 8.6ZM51.7349 1.16V13H50.2789V1.16H51.7349ZM58.4884 4.072C59.555 4.072 60.419 4.39733 61.0804 5.048C61.7417 5.688 62.0724 6.616 62.0724 7.832V13H60.6324V8.04C60.6324 7.16533 60.4137 6.49867 59.9764 6.04C59.539 5.57067 58.9417 5.336 58.1844 5.336C57.4164 5.336 56.803 5.576 56.3444 6.056C55.8964 6.536 55.6724 7.23467 55.6724 8.152V13H54.2164V4.232H55.6724V5.48C55.9604 5.032 56.3497 4.68533 56.8404 4.44C57.3417 4.19467 57.891 4.072 58.4884 4.072Z" fill="black"/>
</svg>
