<svg width="66" height="14" viewBox="0 0 66 14" fill="none" xmlns="http://www.w3.org/2000/svg">
<path d="M1.688 11.816H5.592V13H0.232V1.848H1.688V11.816ZM10.9623 13.144C10.1409 13.144 9.39425 12.9573 8.72225 12.584C8.06092 12.2107 7.53825 11.6827 7.15425 11C6.78092 10.3067 6.59425 9.50667 6.59425 8.6C6.59425 7.704 6.78625 6.91467 7.17025 6.232C7.56492 5.53867 8.09825 5.01067 8.77025 4.648C9.44225 4.27467 10.1943 4.088 11.0263 4.088C11.8583 4.088 12.6103 4.27467 13.2823 4.648C13.9543 5.01067 14.4823 5.53333 14.8663 6.216C15.2609 6.89867 15.4583 7.69333 15.4583 8.6C15.4583 9.50667 15.2556 10.3067 14.8503 11C14.4556 11.6827 13.9169 12.2107 13.2343 12.584C12.5516 12.9573 11.7943 13.144 10.9623 13.144ZM10.9623 11.864C11.4849 11.864 11.9756 11.7413 12.4343 11.496C12.8929 11.2507 13.2609 10.8827 13.5383 10.392C13.8263 9.90133 13.9703 9.304 13.9703 8.6C13.9703 7.896 13.8316 7.29867 13.5543 6.808C13.2769 6.31733 12.9143 5.95467 12.4663 5.72C12.0183 5.47467 11.5329 5.352 11.0103 5.352C10.4769 5.352 9.98625 5.47467 9.53825 5.72C9.10092 5.95467 8.74892 6.31733 8.48225 6.808C8.21558 7.29867 8.08225 7.896 8.08225 8.6C8.08225 9.31467 8.21025 9.91733 8.46625 10.408C8.73292 10.8987 9.08492 11.2667 9.52225 11.512C9.95958 11.7467 10.4396 11.864 10.9623 11.864ZM16.8286 8.6C16.8286 7.69333 17.01 6.904 17.3726 6.232C17.7353 5.54933 18.2366 5.02133 18.8766 4.648C19.5273 4.27467 20.2686 4.088 21.1006 4.088C22.178 4.088 23.0633 4.34933 23.7566 4.872C24.4606 5.39467 24.9246 6.12 25.1486 7.048H23.5806C23.4313 6.51467 23.138 6.09333 22.7006 5.784C22.274 5.47467 21.7406 5.32 21.1006 5.32C20.2686 5.32 19.5966 5.608 19.0846 6.184C18.5726 6.74933 18.3166 7.55467 18.3166 8.6C18.3166 9.656 18.5726 10.472 19.0846 11.048C19.5966 11.624 20.2686 11.912 21.1006 11.912C21.7406 11.912 22.274 11.7627 22.7006 11.464C23.1273 11.1653 23.4206 10.7387 23.5806 10.184H25.1486C24.914 11.08 24.4446 11.8 23.7406 12.344C23.0366 12.8773 22.1566 13.144 21.1006 13.144C20.2686 13.144 19.5273 12.9573 18.8766 12.584C18.2366 12.2107 17.7353 11.6827 17.3726 11C17.01 10.3173 16.8286 9.51733 16.8286 8.6ZM26.5474 8.584C26.5474 7.688 26.7287 6.904 27.0914 6.232C27.454 5.54933 27.95 5.02133 28.5794 4.648C29.2194 4.27467 29.9287 4.088 30.7074 4.088C31.4754 4.088 32.142 4.25333 32.7074 4.584C33.2727 4.91467 33.694 5.33067 33.9714 5.832V4.232H35.4434V13H33.9714V11.368C33.6834 11.88 33.2514 12.3067 32.6754 12.648C32.11 12.9787 31.4487 13.144 30.6914 13.144C29.9127 13.144 29.2087 12.952 28.5794 12.568C27.95 12.184 27.454 11.6453 27.0914 10.952C26.7287 10.2587 26.5474 9.46933 26.5474 8.584ZM33.9714 8.6C33.9714 7.93867 33.838 7.36267 33.5714 6.872C33.3047 6.38133 32.942 6.008 32.4834 5.752C32.0354 5.48533 31.5394 5.352 30.9954 5.352C30.4514 5.352 29.9554 5.48 29.5074 5.736C29.0594 5.992 28.702 6.36533 28.4354 6.856C28.1687 7.34667 28.0354 7.92267 28.0354 8.584C28.0354 9.256 28.1687 9.84267 28.4354 10.344C28.702 10.8347 29.0594 11.2133 29.5074 11.48C29.9554 11.736 30.4514 11.864 30.9954 11.864C31.5394 11.864 32.0354 11.736 32.4834 11.48C32.942 11.2133 33.3047 10.8347 33.5714 10.344C33.838 9.84267 33.9714 9.26133 33.9714 8.6ZM39.6799 5.432V10.6C39.6799 11.0267 39.7705 11.3307 39.9519 11.512C40.1332 11.6827 40.4479 11.768 40.8959 11.768H41.9679V13H40.6559C39.8452 13 39.2372 12.8133 38.8319 12.44C38.4265 12.0667 38.2239 11.4533 38.2239 10.6V5.432H37.0879V4.232H38.2239V2.024H39.6799V4.232H41.9679V5.432H39.6799ZM44.484 2.808C44.2067 2.808 43.972 2.712 43.78 2.52C43.588 2.328 43.492 2.09333 43.492 1.816C43.492 1.53867 43.588 1.304 43.78 1.112C43.972 0.919999 44.2067 0.823999 44.484 0.823999C44.7507 0.823999 44.9747 0.919999 45.156 1.112C45.348 1.304 45.444 1.53867 45.444 1.816C45.444 2.09333 45.348 2.328 45.156 2.52C44.9747 2.712 44.7507 2.808 44.484 2.808ZM45.188 4.232V13H43.732V4.232H45.188ZM51.4935 13.144C50.6722 13.144 49.9255 12.9573 49.2535 12.584C48.5922 12.2107 48.0695 11.6827 47.6855 11C47.3122 10.3067 47.1255 9.50667 47.1255 8.6C47.1255 7.704 47.3175 6.91467 47.7015 6.232C48.0962 5.53867 48.6295 5.01067 49.3015 4.648C49.9735 4.27467 50.7255 4.088 51.5575 4.088C52.3895 4.088 53.1415 4.27467 53.8135 4.648C54.4855 5.01067 55.0135 5.53333 55.3975 6.216C55.7922 6.89867 55.9895 7.69333 55.9895 8.6C55.9895 9.50667 55.7868 10.3067 55.3815 11C54.9868 11.6827 54.4482 12.2107 53.7655 12.584C53.0828 12.9573 52.3255 13.144 51.4935 13.144ZM51.4935 11.864C52.0162 11.864 52.5068 11.7413 52.9655 11.496C53.4242 11.2507 53.7922 10.8827 54.0695 10.392C54.3575 9.90133 54.5015 9.304 54.5015 8.6C54.5015 7.896 54.3628 7.29867 54.0855 6.808C53.8082 6.31733 53.4455 5.95467 52.9975 5.72C52.5495 5.47467 52.0642 5.352 51.5415 5.352C51.0082 5.352 50.5175 5.47467 50.0695 5.72C49.6322 5.95467 49.2802 6.31733 49.0135 6.808C48.7468 7.29867 48.6135 7.896 48.6135 8.6C48.6135 9.31467 48.7415 9.91733 48.9975 10.408C49.2642 10.8987 49.6162 11.2667 50.0535 11.512C50.4908 11.7467 50.9708 11.864 51.4935 11.864ZM62.1759 4.072C63.2425 4.072 64.1065 4.39733 64.7679 5.048C65.4292 5.688 65.7599 6.616 65.7599 7.832V13H64.3199V8.04C64.3199 7.16533 64.1012 6.49867 63.6639 6.04C63.2265 5.57067 62.6292 5.336 61.8719 5.336C61.1039 5.336 60.4905 5.576 60.0319 6.056C59.5839 6.536 59.3599 7.23467 59.3599 8.152V13H57.9039V4.232H59.3599V5.48C59.6479 5.032 60.0372 4.68533 60.5279 4.44C61.0292 4.19467 61.5785 4.072 62.1759 4.072Z" fill="black"/>
</svg>
