<svg width="55" height="13" viewBox="0 0 55 13" fill="none" xmlns="http://www.w3.org/2000/svg">
<path d="M4.768 12.112C4.032 12.112 3.37067 11.984 2.784 11.728C2.208 11.4613 1.75467 11.0987 1.424 10.64C1.09333 10.1707 0.922667 9.632 0.912 9.024H2.464C2.51733 9.54667 2.73067 9.98933 3.104 10.352C3.488 10.704 4.04267 10.88 4.768 10.88C5.46133 10.88 6.00533 10.7093 6.4 10.368C6.80533 10.016 7.008 9.568 7.008 9.024C7.008 8.59733 6.89067 8.25067 6.656 7.984C6.42133 7.71733 6.128 7.51467 5.776 7.376C5.424 7.23733 4.94933 7.088 4.352 6.928C3.616 6.736 3.024 6.544 2.576 6.352C2.13867 6.16 1.76 5.86133 1.44 5.456C1.13067 5.04 0.976 4.48533 0.976 3.792C0.976 3.184 1.13067 2.64533 1.44 2.176C1.74933 1.70667 2.18133 1.344 2.736 1.088C3.30133 0.831999 3.94667 0.704 4.672 0.704C5.71733 0.704 6.57067 0.965333 7.232 1.488C7.904 2.01067 8.28267 2.704 8.368 3.568H6.768C6.71467 3.14133 6.49067 2.768 6.096 2.448C5.70133 2.11733 5.17867 1.952 4.528 1.952C3.92 1.952 3.424 2.112 3.04 2.432C2.656 2.74133 2.464 3.17867 2.464 3.744C2.464 4.14933 2.576 4.48 2.8 4.736C3.03467 4.992 3.31733 5.18933 3.648 5.328C3.98933 5.456 4.464 5.60533 5.072 5.776C5.808 5.97867 6.4 6.18133 6.848 6.384C7.296 6.576 7.68 6.88 8 7.296C8.32 7.70133 8.48 8.256 8.48 8.96C8.48 9.504 8.336 10.016 8.048 10.496C7.76 10.976 7.33333 11.3653 6.768 11.664C6.20267 11.9627 5.536 12.112 4.768 12.112ZM18.6226 7.28C18.6226 7.55733 18.6066 7.85067 18.5746 8.16H11.5666C11.62 9.024 11.9133 9.70133 12.4466 10.192C12.9906 10.672 13.6466 10.912 14.4146 10.912C15.044 10.912 15.5666 10.768 15.9826 10.48C16.4093 10.1813 16.708 9.78667 16.8786 9.296H18.4466C18.212 10.1387 17.7426 10.8267 17.0386 11.36C16.3346 11.8827 15.46 12.144 14.4146 12.144C13.5826 12.144 12.836 11.9573 12.1746 11.584C11.524 11.2107 11.012 10.6827 10.6386 10C10.2653 9.30667 10.0786 8.50667 10.0786 7.6C10.0786 6.69333 10.26 5.89867 10.6226 5.216C10.9853 4.53333 11.492 4.01067 12.1426 3.648C12.804 3.27467 13.5613 3.088 14.4146 3.088C15.2466 3.088 15.9826 3.26933 16.6226 3.632C17.2626 3.99467 17.7533 4.496 18.0946 5.136C18.4466 5.76533 18.6226 6.48 18.6226 7.28ZM17.1186 6.976C17.1186 6.42133 16.996 5.94667 16.7506 5.552C16.5053 5.14667 16.1693 4.84267 15.7426 4.64C15.3266 4.42667 14.8626 4.32 14.3506 4.32C13.6146 4.32 12.9853 4.55467 12.4626 5.024C11.9506 5.49333 11.6573 6.144 11.5826 6.976H17.1186ZM20.0005 7.584C20.0005 6.688 20.1818 5.904 20.5445 5.232C20.9072 4.54933 21.4032 4.02133 22.0325 3.648C22.6725 3.27467 23.3818 3.088 24.1605 3.088C24.9285 3.088 25.5952 3.25333 26.1605 3.584C26.7258 3.91467 27.1472 4.33067 27.4245 4.832V3.232H28.8965V12H27.4245V10.368C27.1365 10.88 26.7045 11.3067 26.1285 11.648C25.5632 11.9787 24.9018 12.144 24.1445 12.144C23.3658 12.144 22.6618 11.952 22.0325 11.568C21.4032 11.184 20.9072 10.6453 20.5445 9.952C20.1818 9.25867 20.0005 8.46933 20.0005 7.584ZM27.4245 7.6C27.4245 6.93867 27.2912 6.36267 27.0245 5.872C26.7578 5.38133 26.3952 5.008 25.9365 4.752C25.4885 4.48533 24.9925 4.352 24.4485 4.352C23.9045 4.352 23.4085 4.48 22.9605 4.736C22.5125 4.992 22.1552 5.36533 21.8885 5.856C21.6218 6.34667 21.4885 6.92267 21.4885 7.584C21.4885 8.256 21.6218 8.84267 21.8885 9.344C22.1552 9.83467 22.5125 10.2133 22.9605 10.48C23.4085 10.736 23.9045 10.864 24.4485 10.864C24.9925 10.864 25.4885 10.736 25.9365 10.48C26.3952 10.2133 26.7578 9.83467 27.0245 9.344C27.2912 8.84267 27.4245 8.26133 27.4245 7.6ZM32.813 4.656C33.069 4.15467 33.4317 3.76533 33.901 3.488C34.381 3.21067 34.9623 3.072 35.645 3.072V4.576H35.261C33.629 4.576 32.813 5.46133 32.813 7.232V12H31.357V3.232H32.813V4.656ZM36.7818 7.6C36.7818 6.69333 36.9631 5.904 37.3258 5.232C37.6884 4.54933 38.1898 4.02133 38.8298 3.648C39.4804 3.27467 40.2218 3.088 41.0538 3.088C42.1311 3.088 43.0164 3.34933 43.7098 3.872C44.4138 4.39467 44.8778 5.12 45.1018 6.048H43.5338C43.3844 5.51467 43.0911 5.09333 42.6538 4.784C42.2271 4.47467 41.6938 4.32 41.0538 4.32C40.2218 4.32 39.5498 4.608 39.0378 5.184C38.5258 5.74933 38.2698 6.55467 38.2698 7.6C38.2698 8.656 38.5258 9.472 39.0378 10.048C39.5498 10.624 40.2218 10.912 41.0538 10.912C41.6938 10.912 42.2271 10.7627 42.6538 10.464C43.0804 10.1653 43.3738 9.73867 43.5338 9.184H45.1018C44.8671 10.08 44.3978 10.8 43.6938 11.344C42.9898 11.8773 42.1098 12.144 41.0538 12.144C40.2218 12.144 39.4804 11.9573 38.8298 11.584C38.1898 11.2107 37.6884 10.6827 37.3258 10C36.9631 9.31733 36.7818 8.51733 36.7818 7.6ZM51.3965 3.072C52.0578 3.072 52.6552 3.216 53.1885 3.504C53.7218 3.78133 54.1378 4.20267 54.4365 4.768C54.7458 5.33333 54.9005 6.02133 54.9005 6.832V12H53.4605V7.04C53.4605 6.16533 53.2418 5.49867 52.8045 5.04C52.3672 4.57067 51.7698 4.336 51.0125 4.336C50.2445 4.336 49.6312 4.576 49.1725 5.056C48.7245 5.536 48.5005 6.23467 48.5005 7.152V12H47.0445V0.16H48.5005V4.48C48.7885 4.032 49.1832 3.68533 49.6845 3.44C50.1965 3.19467 50.7672 3.072 51.3965 3.072Z" fill="black"/>
</svg>
