<svg width="78" height="16" viewBox="0 0 78 16" fill="none" xmlns="http://www.w3.org/2000/svg">
<path d="M4.336 11.144C3.664 11.144 3.06133 11.032 2.528 10.808C1.99467 10.5733 1.57333 10.2533 1.264 9.848C0.954667 9.432 0.784 8.95733 0.752 8.424H2.256C2.29867 8.86133 2.50133 9.21867 2.864 9.496C3.23733 9.77333 3.72267 9.912 4.32 9.912C4.87467 9.912 5.312 9.78933 5.632 9.544C5.952 9.29867 6.112 8.98933 6.112 8.616C6.112 8.232 5.94133 7.94933 5.6 7.768C5.25867 7.576 4.73067 7.38933 4.016 7.208C3.36533 7.03733 2.832 6.86667 2.416 6.696C2.01067 6.51467 1.65867 6.25333 1.36 5.912C1.072 5.56 0.928 5.10133 0.928 4.536C0.928 4.088 1.06133 3.67733 1.328 3.304C1.59467 2.93067 1.97333 2.63733 2.464 2.424C2.95467 2.2 3.51467 2.088 4.144 2.088C5.11467 2.088 5.89867 2.33333 6.496 2.824C7.09333 3.31467 7.41333 3.98667 7.456 4.84H6C5.968 4.38133 5.78133 4.01333 5.44 3.736C5.10933 3.45867 4.66133 3.32 4.096 3.32C3.57333 3.32 3.15733 3.432 2.848 3.656C2.53867 3.88 2.384 4.17333 2.384 4.536C2.384 4.824 2.47467 5.064 2.656 5.256C2.848 5.43733 3.08267 5.58667 3.36 5.704C3.648 5.81067 4.04267 5.93333 4.544 6.072C5.17333 6.24267 5.68533 6.41333 6.08 6.584C6.47467 6.744 6.81067 6.98933 7.088 7.32C7.376 7.65067 7.52533 8.08267 7.536 8.616C7.536 9.096 7.40267 9.528 7.136 9.912C6.86933 10.296 6.49067 10.6 6 10.824C5.52 11.0373 4.96533 11.144 4.336 11.144ZM17.5914 6.28C17.5914 6.55733 17.5754 6.85067 17.5434 7.16H10.5354C10.5887 8.024 10.882 8.70133 11.4154 9.192C11.9594 9.672 12.6154 9.912 13.3834 9.912C14.0127 9.912 14.5354 9.768 14.9514 9.48C15.378 9.18133 15.6767 8.78667 15.8474 8.296H17.4154C17.1807 9.13867 16.7114 9.82667 16.0074 10.36C15.3034 10.8827 14.4287 11.144 13.3834 11.144C12.5514 11.144 11.8047 10.9573 11.1434 10.584C10.4927 10.2107 9.98071 9.68267 9.60738 9C9.23404 8.30667 9.04738 7.50667 9.04738 6.6C9.04738 5.69333 9.22871 4.89867 9.59138 4.216C9.95404 3.53333 10.4607 3.01067 11.1114 2.648C11.7727 2.27467 12.53 2.088 13.3834 2.088C14.2154 2.088 14.9514 2.26933 15.5914 2.632C16.2314 2.99467 16.722 3.496 17.0634 4.136C17.4154 4.76533 17.5914 5.48 17.5914 6.28ZM16.0874 5.976C16.0874 5.42133 15.9647 4.94667 15.7194 4.552C15.474 4.14667 15.138 3.84267 14.7114 3.64C14.2954 3.42667 13.8314 3.32 13.3194 3.32C12.5834 3.32 11.954 3.55467 11.4314 4.024C10.9194 4.49333 10.626 5.144 10.5514 5.976H16.0874ZM20.9693 3.848C21.2573 3.34667 21.6839 2.93067 22.2493 2.6C22.8253 2.25867 23.4919 2.088 24.2493 2.088C25.0279 2.088 25.7319 2.27467 26.3612 2.648C27.0012 3.02133 27.5026 3.54933 27.8653 4.232C28.2279 4.904 28.4093 5.688 28.4093 6.584C28.4093 7.46933 28.2279 8.25867 27.8653 8.952C27.5026 9.64533 27.0012 10.184 26.3612 10.568C25.7319 10.952 25.0279 11.144 24.2493 11.144C23.5026 11.144 22.8413 10.9787 22.2653 10.648C21.6999 10.3067 21.2679 9.88533 20.9693 9.384V15.16H19.5133V2.232H20.9693V3.848ZM26.9213 6.584C26.9213 5.92267 26.7879 5.34667 26.5213 4.856C26.2546 4.36533 25.8919 3.992 25.4333 3.736C24.9853 3.48 24.4893 3.352 23.9453 3.352C23.4119 3.352 22.9159 3.48533 22.4573 3.752C22.0093 4.008 21.6466 4.38667 21.3693 4.888C21.1026 5.37867 20.9693 5.94933 20.9693 6.6C20.9693 7.26133 21.1026 7.84267 21.3693 8.344C21.6466 8.83467 22.0093 9.21333 22.4573 9.48C22.9159 9.736 23.4119 9.864 23.9453 9.864C24.4893 9.864 24.9853 9.736 25.4333 9.48C25.8919 9.21333 26.2546 8.83467 26.5213 8.344C26.7879 7.84267 26.9213 7.256 26.9213 6.584ZM38.3258 6.28C38.3258 6.55733 38.3098 6.85067 38.2778 7.16H31.2698C31.3231 8.024 31.6164 8.70133 32.1498 9.192C32.6938 9.672 33.3498 9.912 34.1178 9.912C34.7471 9.912 35.2698 9.768 35.6858 9.48C36.1124 9.18133 36.4111 8.78667 36.5818 8.296H38.1498C37.9151 9.13867 37.4458 9.82667 36.7418 10.36C36.0378 10.8827 35.1631 11.144 34.1178 11.144C33.2858 11.144 32.5391 10.9573 31.8778 10.584C31.2271 10.2107 30.7151 9.68267 30.3418 9C29.9684 8.30667 29.7818 7.50667 29.7818 6.6C29.7818 5.69333 29.9631 4.89867 30.3258 4.216C30.6884 3.53333 31.1951 3.01067 31.8458 2.648C32.5071 2.27467 33.2644 2.088 34.1178 2.088C34.9498 2.088 35.6858 2.26933 36.3258 2.632C36.9658 2.99467 37.4564 3.496 37.7978 4.136C38.1498 4.76533 38.3258 5.48 38.3258 6.28ZM36.8218 5.976C36.8218 5.42133 36.6991 4.94667 36.4538 4.552C36.2084 4.14667 35.8724 3.84267 35.4458 3.64C35.0298 3.42667 34.5658 3.32 34.0538 3.32C33.3178 3.32 32.6884 3.55467 32.1658 4.024C31.6538 4.49333 31.3604 5.144 31.2858 5.976H36.8218ZM41.7036 3.656C41.9596 3.15467 42.3223 2.76533 42.7916 2.488C43.2716 2.21067 43.853 2.072 44.5356 2.072V3.576H44.1516C42.5196 3.576 41.7036 4.46133 41.7036 6.232V11H40.2476V2.232H41.7036V3.656ZM45.6724 6.584C45.6724 5.688 45.8537 4.904 46.2164 4.232C46.579 3.54933 47.075 3.02133 47.7044 2.648C48.3444 2.27467 49.0537 2.088 49.8324 2.088C50.6004 2.088 51.267 2.25333 51.8324 2.584C52.3977 2.91467 52.819 3.33067 53.0964 3.832V2.232H54.5684V11H53.0964V9.368C52.8084 9.88 52.3764 10.3067 51.8004 10.648C51.235 10.9787 50.5737 11.144 49.8164 11.144C49.0377 11.144 48.3337 10.952 47.7044 10.568C47.075 10.184 46.579 9.64533 46.2164 8.952C45.8537 8.25867 45.6724 7.46933 45.6724 6.584ZM53.0964 6.6C53.0964 5.93867 52.963 5.36267 52.6964 4.872C52.4297 4.38133 52.067 4.008 51.6084 3.752C51.1604 3.48533 50.6644 3.352 50.1204 3.352C49.5764 3.352 49.0804 3.48 48.6324 3.736C48.1844 3.992 47.827 4.36533 47.5604 4.856C47.2937 5.34667 47.1604 5.92267 47.1604 6.584C47.1604 7.256 47.2937 7.84267 47.5604 8.344C47.827 8.83467 48.1844 9.21333 48.6324 9.48C49.0804 9.736 49.5764 9.864 50.1204 9.864C50.6644 9.864 51.1604 9.736 51.6084 9.48C52.067 9.21333 52.4297 8.83467 52.6964 8.344C52.963 7.84267 53.0964 7.26133 53.0964 6.6ZM58.8049 3.432V8.6C58.8049 9.02667 58.8955 9.33067 59.0769 9.512C59.2582 9.68267 59.5729 9.768 60.0209 9.768H61.0929V11H59.7809C58.9702 11 58.3622 10.8133 57.9569 10.44C57.5515 10.0667 57.3489 9.45333 57.3489 8.6V3.432H56.2129V2.232H57.3489V0.0239992H58.8049V2.232H61.0929V3.432H58.8049ZM66.681 11.144C65.8597 11.144 65.113 10.9573 64.441 10.584C63.7797 10.2107 63.257 9.68267 62.873 9C62.4997 8.30667 62.313 7.50667 62.313 6.6C62.313 5.704 62.505 4.91467 62.889 4.232C63.2837 3.53867 63.817 3.01067 64.489 2.648C65.161 2.27467 65.913 2.088 66.745 2.088C67.577 2.088 68.329 2.27467 69.001 2.648C69.673 3.01067 70.201 3.53333 70.585 4.216C70.9797 4.89867 71.177 5.69333 71.177 6.6C71.177 7.50667 70.9743 8.30667 70.569 9C70.1743 9.68267 69.6357 10.2107 68.953 10.584C68.2703 10.9573 67.513 11.144 66.681 11.144ZM66.681 9.864C67.2037 9.864 67.6943 9.74133 68.153 9.496C68.6117 9.25067 68.9797 8.88267 69.257 8.392C69.545 7.90133 69.689 7.304 69.689 6.6C69.689 5.896 69.5503 5.29867 69.273 4.808C68.9957 4.31733 68.633 3.95467 68.185 3.72C67.737 3.47467 67.2517 3.352 66.729 3.352C66.1957 3.352 65.705 3.47467 65.257 3.72C64.8197 3.95467 64.4677 4.31733 64.201 4.808C63.9343 5.29867 63.801 5.896 63.801 6.6C63.801 7.31467 63.929 7.91733 64.185 8.408C64.4517 8.89867 64.8037 9.26667 65.241 9.512C65.6783 9.74667 66.1583 9.864 66.681 9.864ZM74.5474 3.656C74.8034 3.15467 75.166 2.76533 75.6354 2.488C76.1154 2.21067 76.6967 2.072 77.3794 2.072V3.576H76.9954C75.3634 3.576 74.5474 4.46133 74.5474 6.232V11H73.0914V2.232H74.5474V3.656Z" fill="black"/>
</svg>
