<svg width="39" height="14" viewBox="0 0 39 14" fill="none" xmlns="http://www.w3.org/2000/svg">
<path d="M8.096 1.848V3.032H5.056V13H3.6V3.032H0.544V1.848H8.096ZM10.6403 2.808C10.3629 2.808 10.1283 2.712 9.93625 2.52C9.74425 2.328 9.64825 2.09333 9.64825 1.816C9.64825 1.53867 9.74425 1.304 9.93625 1.112C10.1283 0.919999 10.3629 0.823999 10.6403 0.823999C10.9069 0.823999 11.1309 0.919999 11.3123 1.112C11.5043 1.304 11.6003 1.53867 11.6003 1.816C11.6003 2.09333 11.5043 2.328 11.3123 2.52C11.1309 2.712 10.9069 2.808 10.6403 2.808ZM11.3443 4.232V13H9.88825V4.232H11.3443ZM24.3698 4.072C25.0524 4.072 25.6604 4.216 26.1938 4.504C26.7271 4.78133 27.1484 5.20267 27.4578 5.768C27.7671 6.33333 27.9218 7.02133 27.9218 7.832V13H26.4818V8.04C26.4818 7.16533 26.2631 6.49867 25.8258 6.04C25.3991 5.57067 24.8178 5.336 24.0818 5.336C23.3244 5.336 22.7218 5.58133 22.2738 6.072C21.8258 6.552 21.6018 7.25067 21.6018 8.168V13H20.1618V8.04C20.1618 7.16533 19.9431 6.49867 19.5058 6.04C19.0791 5.57067 18.4978 5.336 17.7618 5.336C17.0044 5.336 16.4018 5.58133 15.9538 6.072C15.5058 6.552 15.2818 7.25067 15.2818 8.168V13H13.8258V4.232H15.2818V5.496C15.5698 5.03733 15.9538 4.68533 16.4338 4.44C16.9244 4.19467 17.4631 4.072 18.0498 4.072C18.7858 4.072 19.4364 4.23733 20.0018 4.568C20.5671 4.89867 20.9884 5.384 21.2658 6.024C21.5111 5.40533 21.9164 4.92533 22.4818 4.584C23.0471 4.24267 23.6764 4.072 24.3698 4.072ZM38.3101 8.28C38.3101 8.55733 38.2941 8.85067 38.2621 9.16H31.2541C31.3075 10.024 31.6008 10.7013 32.1341 11.192C32.6781 11.672 33.3341 11.912 34.1021 11.912C34.7315 11.912 35.2541 11.768 35.6701 11.48C36.0968 11.1813 36.3955 10.7867 36.5661 10.296H38.1341C37.8995 11.1387 37.4301 11.8267 36.7261 12.36C36.0221 12.8827 35.1475 13.144 34.1021 13.144C33.2701 13.144 32.5235 12.9573 31.8621 12.584C31.2115 12.2107 30.6995 11.6827 30.3261 11C29.9528 10.3067 29.7661 9.50667 29.7661 8.6C29.7661 7.69333 29.9475 6.89867 30.3101 6.216C30.6728 5.53333 31.1795 5.01067 31.8301 4.648C32.4915 4.27467 33.2488 4.088 34.1021 4.088C34.9341 4.088 35.6701 4.26933 36.3101 4.632C36.9501 4.99467 37.4408 5.496 37.7821 6.136C38.1341 6.76533 38.3101 7.48 38.3101 8.28ZM36.8061 7.976C36.8061 7.42133 36.6835 6.94667 36.4381 6.552C36.1928 6.14667 35.8568 5.84267 35.4301 5.64C35.0141 5.42667 34.5501 5.32 34.0381 5.32C33.3021 5.32 32.6728 5.55467 32.1501 6.024C31.6381 6.49333 31.3448 7.144 31.2701 7.976H36.8061Z" fill="black"/>
</svg>
