<svg width="53" height="14" viewBox="0 0 53 14" fill="none" xmlns="http://www.w3.org/2000/svg">
<path d="M8.096 1.848V3.032H5.056V13H3.6V3.032H0.544V1.848H8.096ZM21.5683 4.232L18.8323 13H17.3283L15.2163 6.04L13.1043 13H11.6003L8.84825 4.232H10.3363L12.3523 11.592L14.5283 4.232H16.0163L18.1443 11.608L20.1283 4.232H21.5683ZM23.7653 2.808C23.4879 2.808 23.2533 2.712 23.0613 2.52C22.8693 2.328 22.7733 2.09333 22.7733 1.816C22.7733 1.53867 22.8693 1.304 23.0613 1.112C23.2533 0.919999 23.4879 0.823999 23.7653 0.823999C24.0319 0.823999 24.2559 0.919999 24.4373 1.112C24.6293 1.304 24.7253 1.53867 24.7253 1.816C24.7253 2.09333 24.6293 2.328 24.4373 2.52C24.2559 2.712 24.0319 2.808 23.7653 2.808ZM24.4693 4.232V13H23.0133V4.232H24.4693ZM28.7268 5.432V10.6C28.7268 11.0267 28.8174 11.3307 28.9988 11.512C29.1801 11.6827 29.4948 11.768 29.9427 11.768H31.0148V13H29.7028C28.8921 13 28.2841 12.8133 27.8788 12.44C27.4734 12.0667 27.2708 11.4533 27.2708 10.6V5.432H26.1348V4.232H27.2708V2.024H28.7268V4.232H31.0148V5.432H28.7268ZM34.5549 5.432V10.6C34.5549 11.0267 34.6455 11.3307 34.8269 11.512C35.0082 11.6827 35.3229 11.768 35.7709 11.768H36.8429V13H35.5309C34.7202 13 34.1122 12.8133 33.7069 12.44C33.3015 12.0667 33.0989 11.4533 33.0989 10.6V5.432H31.9629V4.232H33.0989V2.024H34.5549V4.232H36.8429V5.432H34.5549ZM46.607 8.28C46.607 8.55733 46.591 8.85067 46.559 9.16H39.551C39.6043 10.024 39.8977 10.7013 40.431 11.192C40.975 11.672 41.631 11.912 42.399 11.912C43.0283 11.912 43.551 11.768 43.967 11.48C44.3937 11.1813 44.6923 10.7867 44.863 10.296H46.431C46.1963 11.1387 45.727 11.8267 45.023 12.36C44.319 12.8827 43.4443 13.144 42.399 13.144C41.567 13.144 40.8203 12.9573 40.159 12.584C39.5083 12.2107 38.9963 11.6827 38.623 11C38.2497 10.3067 38.063 9.50667 38.063 8.6C38.063 7.69333 38.2443 6.89867 38.607 6.216C38.9697 5.53333 39.4763 5.01067 40.127 4.648C40.7883 4.27467 41.5457 4.088 42.399 4.088C43.231 4.088 43.967 4.26933 44.607 4.632C45.247 4.99467 45.7377 5.496 46.079 6.136C46.431 6.76533 46.607 7.48 46.607 8.28ZM45.103 7.976C45.103 7.42133 44.9803 6.94667 44.735 6.552C44.4897 6.14667 44.1537 5.84267 43.727 5.64C43.311 5.42667 42.847 5.32 42.335 5.32C41.599 5.32 40.9697 5.55467 40.447 6.024C39.935 6.49333 39.6417 7.144 39.567 7.976H45.103ZM49.9849 5.656C50.2409 5.15467 50.6035 4.76533 51.0729 4.488C51.5529 4.21067 52.1342 4.072 52.8169 4.072V5.576H52.4329C50.8009 5.576 49.9849 6.46133 49.9849 8.232V13H48.5289V4.232H49.9849V5.656Z" fill="black"/>
</svg>
