<svg width="56" height="17" viewBox="0 0 56 17" fill="none" xmlns="http://www.w3.org/2000/svg">
<path d="M1.656 0.848V7.904C1.656 8.896 1.896 9.632 2.376 10.112C2.86667 10.592 3.544 10.832 4.408 10.832C5.26133 10.832 5.928 10.592 6.408 10.112C6.89867 9.632 7.144 8.896 7.144 7.904V0.848H8.6V7.888C8.6 8.816 8.41333 9.6 8.04 10.24C7.66667 10.8693 7.16 11.3387 6.52 11.648C5.89067 11.9573 5.18133 12.112 4.392 12.112C3.60267 12.112 2.888 11.9573 2.248 11.648C1.61867 11.3387 1.11733 10.8693 0.744 10.24C0.381333 9.6 0.2 8.816 0.2 7.888V0.848H1.656ZM12.4849 4.848C12.7729 4.34667 13.1995 3.93067 13.7649 3.6C14.3409 3.25867 15.0075 3.088 15.7649 3.088C16.5435 3.088 17.2475 3.27467 17.8769 3.648C18.5169 4.02133 19.0182 4.54933 19.3809 5.232C19.7435 5.904 19.9249 6.688 19.9249 7.584C19.9249 8.46933 19.7435 9.25867 19.3809 9.952C19.0182 10.6453 18.5169 11.184 17.8769 11.568C17.2475 11.952 16.5435 12.144 15.7649 12.144C15.0182 12.144 14.3569 11.9787 13.7809 11.648C13.2155 11.3067 12.7835 10.8853 12.4849 10.384V16.16H11.0289V3.232H12.4849V4.848ZM18.4369 7.584C18.4369 6.92267 18.3035 6.34667 18.0369 5.856C17.7702 5.36533 17.4075 4.992 16.9489 4.736C16.5009 4.48 16.0049 4.352 15.4609 4.352C14.9275 4.352 14.4315 4.48533 13.9729 4.752C13.5249 5.008 13.1622 5.38667 12.8849 5.888C12.6182 6.37867 12.4849 6.94933 12.4849 7.6C12.4849 8.26133 12.6182 8.84267 12.8849 9.344C13.1622 9.83467 13.5249 10.2133 13.9729 10.48C14.4315 10.736 14.9275 10.864 15.4609 10.864C16.0049 10.864 16.5009 10.736 16.9489 10.48C17.4075 10.2133 17.7702 9.83467 18.0369 9.344C18.3035 8.84267 18.4369 8.256 18.4369 7.584ZM23.2974 0.16V12H21.8414V0.16H23.2974ZM29.6029 12.144C28.7815 12.144 28.0349 11.9573 27.3629 11.584C26.7015 11.2107 26.1789 10.6827 25.7949 10C25.4215 9.30667 25.2349 8.50667 25.2349 7.6C25.2349 6.704 25.4269 5.91467 25.8109 5.232C26.2055 4.53867 26.7389 4.01067 27.4109 3.648C28.0829 3.27467 28.8349 3.088 29.6669 3.088C30.4989 3.088 31.2509 3.27467 31.9229 3.648C32.5949 4.01067 33.1229 4.53333 33.5069 5.216C33.9015 5.89867 34.0989 6.69333 34.0989 7.6C34.0989 8.50667 33.8962 9.30667 33.4909 10C33.0962 10.6827 32.5575 11.2107 31.8749 11.584C31.1922 11.9573 30.4349 12.144 29.6029 12.144ZM29.6029 10.864C30.1255 10.864 30.6162 10.7413 31.0749 10.496C31.5335 10.2507 31.9015 9.88267 32.1789 9.392C32.4669 8.90133 32.6109 8.304 32.6109 7.6C32.6109 6.896 32.4722 6.29867 32.1949 5.808C31.9175 5.31733 31.5549 4.95467 31.1069 4.72C30.6589 4.47467 30.1735 4.352 29.6509 4.352C29.1175 4.352 28.6269 4.47467 28.1789 4.72C27.7415 4.95467 27.3895 5.31733 27.1229 5.808C26.8562 6.29867 26.7229 6.896 26.7229 7.6C26.7229 8.31467 26.8509 8.91733 27.1069 9.408C27.3735 9.89867 27.7255 10.2667 28.1629 10.512C28.6002 10.7467 29.0802 10.864 29.6029 10.864ZM35.4693 7.584C35.4693 6.688 35.6506 5.904 36.0133 5.232C36.3759 4.54933 36.8719 4.02133 37.5013 3.648C38.1413 3.27467 38.8506 3.088 39.6293 3.088C40.3973 3.088 41.0639 3.25333 41.6293 3.584C42.1946 3.91467 42.6159 4.33067 42.8933 4.832V3.232H44.3653V12H42.8933V10.368C42.6053 10.88 42.1733 11.3067 41.5973 11.648C41.0319 11.9787 40.3706 12.144 39.6133 12.144C38.8346 12.144 38.1306 11.952 37.5013 11.568C36.8719 11.184 36.3759 10.6453 36.0133 9.952C35.6506 9.25867 35.4693 8.46933 35.4693 7.584ZM42.8933 7.6C42.8933 6.93867 42.7599 6.36267 42.4933 5.872C42.2266 5.38133 41.8639 5.008 41.4053 4.752C40.9573 4.48533 40.4613 4.352 39.9173 4.352C39.3733 4.352 38.8773 4.48 38.4293 4.736C37.9813 4.992 37.6239 5.36533 37.3573 5.856C37.0906 6.34667 36.9573 6.92267 36.9573 7.584C36.9573 8.256 37.0906 8.84267 37.3573 9.344C37.6239 9.83467 37.9813 10.2133 38.4293 10.48C38.8773 10.736 39.3733 10.864 39.9173 10.864C40.4613 10.864 40.9573 10.736 41.4053 10.48C41.8639 10.2133 42.2266 9.83467 42.4933 9.344C42.7599 8.84267 42.8933 8.26133 42.8933 7.6ZM46.2818 7.584C46.2818 6.688 46.4631 5.904 46.8258 5.232C47.1884 4.54933 47.6844 4.02133 48.3138 3.648C48.9538 3.27467 49.6684 3.088 50.4578 3.088C51.1404 3.088 51.7751 3.248 52.3618 3.568C52.9484 3.87733 53.3964 4.288 53.7058 4.8V0.16H55.1778V12H53.7058V10.352C53.4178 10.8747 52.9911 11.3067 52.4258 11.648C51.8604 11.9787 51.1991 12.144 50.4418 12.144C49.6631 12.144 48.9538 11.952 48.3138 11.568C47.6844 11.184 47.1884 10.6453 46.8258 9.952C46.4631 9.25867 46.2818 8.46933 46.2818 7.584ZM53.7058 7.6C53.7058 6.93867 53.5724 6.36267 53.3058 5.872C53.0391 5.38133 52.6764 5.008 52.2178 4.752C51.7698 4.48533 51.2738 4.352 50.7298 4.352C50.1858 4.352 49.6898 4.48 49.2418 4.736C48.7938 4.992 48.4364 5.36533 48.1698 5.856C47.9031 6.34667 47.7698 6.92267 47.7698 7.584C47.7698 8.256 47.9031 8.84267 48.1698 9.344C48.4364 9.83467 48.7938 10.2133 49.2418 10.48C49.6898 10.736 50.1858 10.864 50.7298 10.864C51.2738 10.864 51.7698 10.736 52.2178 10.48C52.6764 10.2133 53.0391 9.83467 53.3058 9.344C53.5724 8.84267 53.7058 8.26133 53.7058 7.6Z" fill="black"/>
</svg>
